<?xml version="1.0" standalone="no"?>
<!DOCTYPE svg PUBLIC "-//W3C//DTD SVG 1.1//EN" "http://www.w3.org/Graphics/SVG/1.1/DTD/svg11.dtd" >
<svg xmlns="http://www.w3.org/2000/svg">
<metadata>
This is a custom SVG webfont generated by Font Squirrel.
Copyright   : The digitally encoded machine readable outline data for producing the Typefaces licensed to you is copyrighted C 1998 by and the property of Heidelberger Druckmaschinen AG andor its subsidiaries All rights reserved
</metadata>
<defs>
<font id="webfontlhRAfG67" horiz-adv-x="1138" >
<font-face units-per-em="2048" ascent="1638" descent="-410" />
<missing-glyph horiz-adv-x="569" />
<glyph unicode=" "  horiz-adv-x="569" />
<glyph unicode="&#x09;" horiz-adv-x="569" />
<glyph unicode="&#xa0;" horiz-adv-x="569" />
<glyph unicode="!" horiz-adv-x="606" d="M270 301l-51 553v604h168v-604l-51 -553h-66zM213 0v193h180v-193h-180z" />
<glyph unicode="&#x22;" horiz-adv-x="796" d="M205 909v549h131v-549h-131zM461 909v549h131v-549h-131z" />
<glyph unicode="#" d="M596 0l63 436h-253l-64 -436h-139l63 436h-209v119h226l41 283h-209v118h225l63 437h140l-64 -437h254l64 437h139l-64 -437h209v-118h-225l-41 -283h209v-119h-225l-64 -436h-139zM676 555l41 283h-254l-41 -283h254z" />
<glyph unicode="$" d="M651 594v-451q111 4 190 62.5t79 161.5q0 88 -95 151q-53 33 -174 76zM520 -252v240q-184 6 -319 107.5t-174 277.5l190 37q31 -115 109 -185q82 -76 194 -82v490q-197 70 -280 145q-119 104 -119 279q0 143 129 246q121 96 270 102v217h131v-217q156 -6 271 -90 q125 -90 147 -240l-184 -14q-57 176 -234 188v-446l80 -33q193 -80 266 -139q115 -96 115 -246q0 -199 -133 -303q-119 -90 -322 -94v-240h-137zM520 846v403q-86 -4 -143 -53q-63 -51 -64 -135q0 -84 66 -139q43 -35 141 -76z" />
<glyph unicode="%" horiz-adv-x="2048" d="M373 1040q0 -102 41 -163q47 -70 137 -70t137 70q41 61 41 163q0 100 -41 164q-47 70 -137 70t-134 -67t-44 -167zM217 1040q0 166 93 265.5t241 99.5q147 0 240.5 -99.5t93.5 -265.5t-93.5 -265t-240.5 -99t-240.5 99t-93.5 265zM1163 352q0 166 93.5 265.5t240.5 99.5 t240.5 -99.5t93.5 -265.5t-93 -265t-241 -99q-147 0 -240.5 99t-93.5 265zM1319 352q0 -102 41 -164q47 -70 137 -69q90 0 137 69q41 61 41 164q0 100 -41 164q-47 70 -137 70t-134 -67t-44 -167zM512 -66l881 1524h141l-881 -1524h-141z" />
<glyph unicode="&#x26;" horiz-adv-x="1327" d="M668 780l213 -368q78 154 102 270h160q-33 -193 -166 -403q80 -111 197 -111q41 0 61 4v-172q-27 -12 -88 -12q-154 0 -289 151q-166 -152 -358 -151q-172 0 -287 110q-121 115 -121 297q0 154 103 279q92 111 243 176q-72 129 -71 258q0 158 88 254t241 96 q127 0 213 -81t86 -208q1 -244 -327 -389zM758 262l-256 443q-229 -94 -230 -302q0 -106 72 -183t174 -77q131 0 240 119zM535 1165q0 -82 67 -241q225 100 225 272q0 59 -36.5 95t-96.5 36q-72 0 -115.5 -45t-43.5 -117z" />
<glyph unicode="'" horiz-adv-x="569" d="M219 909v549h131v-549h-131z" />
<glyph unicode="(" horiz-adv-x="645" d="M614 -352h-135q-303 481 -303 927q0 442 305 920h135q-121 -197 -194 -442q-78 -256 -78 -475q0 -471 270 -930z" />
<glyph unicode=")" horiz-adv-x="645" d="M31 1495h135q303 -481 303 -928q0 -442 -305 -919h-135q121 197 194 442q78 256 78 475q0 471 -270 930z" />
<glyph unicode="*" horiz-adv-x="796" d="M262 807l-104 74l149 204l-246 72l41 125l234 -74v250h131v-252l229 82l39 -129l-233 -76l149 -186l-100 -88l-145 197z" />
<glyph unicode="+" horiz-adv-x="1228" d="M543 0v446h-447v144h447v446h143v-446h447v-144h-447v-446h-143z" />
<glyph unicode="," horiz-adv-x="569" d="M180 0v231h209v-231q0 -49 -18 -141q-25 -106 -58 -176h-96q49 150 49 317h-86z" />
<glyph unicode="-" horiz-adv-x="606" d="M94 436v168h418v-168h-418z" />
<glyph unicode="." horiz-adv-x="569" d="M180 0v231h209v-231h-209z" />
<glyph unicode="/" horiz-adv-x="681" d="M27 -37l479 1532h149l-479 -1532h-149z" />
<glyph unicode="0" d="M256 696q0 -295 104 -432q82 -109 209 -108q127 0 209 108q104 137 105 432q0 295 -105 434q-82 106 -209 107q-127 0 -209 -107q-104 -139 -104 -434zM63 696q0 281 113 475q137 233 393 234q256 0 394 -234q113 -195 112 -475q0 -281 -112 -473q-137 -236 -394 -235 q-256 0 -393 235q-113 192 -113 473z" />
<glyph unicode="1" d="M555 0v1014h-297v131q164 6 238 49q92 53 118 199h134v-1393h-193z" />
<glyph unicode="2" d="M139 0v182q248 131 445 326q256 252 256 469q0 260 -269 260q-127 0 -194 -82q-57 -70 -58 -176q0 -68 19 -174h-180q-18 84 -19 158q0 190 109 311q119 131 336 131q201 0 324.5 -122t123.5 -322q0 -391 -641 -791v2l-2 -4h658v-168h-908z" />
<glyph unicode="3" d="M438 633v164q27 0 78 -2t76 -2q76 0 139 30q109 55 109 183q0 244 -265 243q-139 0 -213 -102q-61 -86 -67 -225l-180 10q12 473 465 473q223 0 348 -129q104 -109 104 -264q0 -92 -39 -170q-47 -88 -127 -117q96 -43 150.5 -132t54.5 -196q0 -154 -88 -258 q-127 -152 -408 -151q-236 0 -366 116q-139 123 -141 357h180q8 -164 87 -234.5t243 -70.5q129 0 208 53q92 61 93 182q0 143 -93 201q-72 45 -221 45q-84 0 -127 -4z" />
<glyph unicode="4" d="M692 0v334h-616v168l661 891h148v-891h194v-168h-194v-334h-193zM692 502v594h-4l-432 -594h436z" />
<glyph unicode="5" d="M971 1393v-168h-649l-23 -361h4q88 115 303 115q223 0 348 -156q109 -137 109 -344q0 -213 -133 -352t-344 -139q-309 0 -439 217q-72 117 -71 231l192 10q2 -109 56 -182q78 -109 251 -108q143 0 226 108q70 90 69 215q0 182 -98 275q-76 70 -178 69q-190 0 -287 -188 l-176 12l47 746h793z" />
<glyph unicode="6" d="M1022 1038l-180 -20q-16 106 -83 168.5t-159 62.5q-313 0 -336 -499h4q29 55 101 102q102 66 237 66q199 0 324 -123t125 -322q0 -186 -105 -319q-131 -166 -383 -166q-176 0 -303 127q-180 178 -180 563q0 297 100 483q131 244 412 244q342 0 426 -367zM293 453 q0 -131 83 -214t208 -83q127 0 208.5 83t81.5 214q0 133 -81.5 215t-208.5 82q-125 0 -208 -82t-83 -215z" />
<glyph unicode="7" d="M158 965v428h852v-174q0 -98 -109 -287q-160 -276 -235 -449q-109 -250 -146 -483h-221q82 430 457 999q98 150 98 226h-553v-260h-143z" />
<glyph unicode="8" d="M74 410q0 219 186 338q-150 82 -149 280q0 139 77 236q115 141 381 141t381 -141q78 -96 78 -236q0 -199 -149 -280q186 -119 186 -338q0 -160 -107 -277q-133 -145 -389 -145t-389 145q-106 117 -106 277zM266 420q0 -264 303 -264t303 264q0 92 -55 153q-80 86 -248 86 t-245 -86q-58 -61 -58 -153zM291 1026q0 -92 71.5 -151.5t206.5 -59.5t207 59.5t72 151.5t-71.5 151.5t-207.5 59.5q-135 0 -206.5 -59.5t-71.5 -151.5z" />
<glyph unicode="9" d="M264 926q0 -166 96 -246q76 -63 203 -64q123 0 203 70q96 82 96 240q0 119 -67 204q-82 106 -232 107q-150 0 -231 -107q-68 -85 -68 -204zM123 340l174 35q55 -231 250 -232q172 0 260 160q70 127 72 313l-2 5q-137 -172 -363 -172q-164 0 -287 112q-143 131 -143 361 q0 209 141 348q135 135 326 135q504 0 504 -694q0 -279 -90 -463q-129 -260 -412 -260q-338 0 -430 352z" />
<glyph unicode=":" horiz-adv-x="569" d="M389 231v-231h-209v231h209zM389 772h-209v232h209v-232z" />
<glyph unicode=";" horiz-adv-x="569" d="M180 0v231h209v-231q0 -49 -18 -141q-25 -106 -58 -176h-96q49 150 49 317h-86zM180 772v232h209v-232h-209z" />
<glyph unicode="&#x3c;" horiz-adv-x="1228" d="M1133 1053v-152l-854 -383l854 -383v-151l-1037 475v119z" />
<glyph unicode="=" horiz-adv-x="1228" d="M96 649v144h1037v-144h-1037zM96 244v143h1037v-143h-1037z" />
<glyph unicode="&#x3e;" horiz-adv-x="1228" d="M96 -16v151l854 383l-854 383v152l1037 -475v-119z" />
<glyph unicode="?" horiz-adv-x="1175" d="M496 315v488h75q317 0 318 266q0 104 -87 181t-198 77q-299 0 -305 -340h-180q-2 221 129 358.5t338 137.5q203 0 332 -113q139 -119 139 -328q0 -176 -108.5 -286.5t-284.5 -120.5v-320h-168zM489 0v193h181v-193h-181z" />
<glyph unicode="@" horiz-adv-x="1638" d="M539 596q0 -195 163 -195q133 0 240 162q96 150 96 297q0 80 -43 133.5t-125 53.5q-135 0 -237 -154q-94 -143 -94 -297zM1106 1008l39 131h127l-178 -594q-25 -82 -25 -105q0 -39 51 -39q109 0 203 147.5t94 309.5q0 229 -172 377q-162 141 -391 141 q-266 0 -449.5 -192.5t-183.5 -454.5q0 -274 186.5 -460.5t452.5 -186.5q156 0 298 65.5t231 186.5h118q-96 -172 -272 -271.5t-375 -99.5q-340 0 -555 218t-215 548q0 324 223.5 545t536.5 221q293 0 493 -178q205 -184 205 -457q0 -240 -162 -420q-150 -170 -315 -170 q-127 0 -133 138h-4q-129 -137 -264 -138q-127 0 -207 90.5t-80 223.5q0 225 135 403q145 190 356 191q162 0 228 -170h4z" />
<glyph unicode="A" horiz-adv-x="1327" d="M18 0l557 1458h205l529 -1458h-207l-156 446h-553l-168 -446h-207zM887 614l-209 605h-4l-221 -605h434z" />
<glyph unicode="B" horiz-adv-x="1402" d="M338 672v-504h518q268 0 268 238q0 170 -106 229q-70 37 -232 37h-448zM338 1290v-450h444q299 0 299 231q0 145 -96 193q-57 27 -205 26h-442zM145 0v1458h682q244 0 365 -125q98 -100 98 -254q0 -111 -60.5 -194.5t-152.5 -112.5v-4q256 -61 256 -371q0 -137 -76 -239 q-113 -158 -366 -158h-746z" />
<glyph unicode="C" horiz-adv-x="1593" d="M1495 1044l-201 -36q-37 147 -167 239t-293 92q-256 0 -398 -184q-127 -166 -127 -426t127 -426q141 -184 398 -184q188 0 319 118.5t158 313.5l202 -25q-49 -252 -241.5 -407.5t-437.5 -155.5q-338 0 -536 211t-198 555t198 555t536 211q242 0 415 -113 q183 -119 246 -338z" />
<glyph unicode="D" horiz-adv-x="1441" d="M145 0v1458h551q322 0 490 -205q156 -190 155 -532q0 -326 -159 -516q-170 -205 -486 -205h-551zM338 1290v-1122h326q469 0 469 571q0 551 -453 551h-342z" />
<glyph unicode="E" horiz-adv-x="1251" d="M145 0v1458h1024v-168h-831v-450h723v-168h-723v-504h852v-168h-1045z" />
<glyph unicode="F" horiz-adv-x="1214" d="M145 0v1458h934v-168h-741v-434h688v-168h-688v-688h-193z" />
<glyph unicode="G" horiz-adv-x="1669" d="M1356 -12v215h-4q-160 -240 -518 -240q-338 0 -536 211t-198 555q0 303 191 524q209 242 543 242q240 0 419 -109q188 -115 265 -321l-193 -51q-109 313 -491 313q-236 0 -385 -176q-139 -166 -140 -410q0 -260 127 -426q141 -184 398 -184q236 0 372 119 q145 123 146 350h-504v168h676v-780h-168z" />
<glyph unicode="H" horiz-adv-x="1478" d="M145 0v1458h193v-618h803v618h192v-1458h-192v672h-803v-672h-193z" />
<glyph unicode="I" horiz-adv-x="528" d="M168 0v1458h192v-1458h-192z" />
<glyph unicode="J" horiz-adv-x="796" d="M436 430v1028h193v-1143q0 -147 -97 -243q-106 -109 -301 -109q-102 0 -196 21v211q76 -39 170 -39q137 0 188 73q43 60 43 201z" />
<glyph unicode="K" horiz-adv-x="1327" d="M145 0v1458h193v-706l694 706h238l-586 -602l608 -856h-233l-508 717l-213 -209v-508h-193z" />
<glyph unicode="L" d="M145 0v1458h193v-1290h727v-168h-920z" />
<glyph unicode="M" horiz-adv-x="1703" d="M152 0v1458h254l446 -1184l446 1184h254v-1458h-192v1174h-4l-426 -1174h-156l-426 1174h-4v-1174h-192z" />
<glyph unicode="N" horiz-adv-x="1441" d="M145 0v1458h195l772 -1151h4v1151h180v-1458h-192l-774 1149h-4v-1149h-181z" />
<glyph unicode="O" horiz-adv-x="1667" d="M100 729q0 344 198 555t536 211t535.5 -211t197.5 -555t-198 -555t-535 -211q-338 0 -536 211t-198 555zM309 729q0 -260 127 -426q141 -184 398 -184q256 0 397 184q127 166 127 426t-127 426q-141 184 -397 184t-398 -184q-127 -166 -127 -426z" />
<glyph unicode="P" horiz-adv-x="1290" d="M145 0v1458h729q154 0 256 -90q125 -113 125 -330q0 -199 -127 -315q-113 -100 -270 -100h-520v-623h-193zM338 1290v-499h446q279 0 279 249q0 250 -252 250h-473z" />
<glyph unicode="Q" horiz-adv-x="1667" d="M1530 -70l-227 185q-186 -152 -469 -152q-338 0 -536 211t-198 555t198 555t536 211t535.5 -211t197.5 -555q0 -276 -133 -473l217 -180zM309 729q0 -260 127 -426q141 -184 398 -184q256 0 397 184q127 166 127 426t-127 426q-141 184 -397 184t-398 -184 q-127 -166 -127 -426z" />
<glyph unicode="R" horiz-adv-x="1366" d="M145 0v1458h660q201 0 321 -86q147 -106 148 -334q0 -352 -338 -407l401 -631h-233l-393 618h-373v-618h-193zM338 1290v-504h436q307 0 307 252t-307 252h-436z" />
<glyph unicode="S" horiz-adv-x="1366" d="M1262 1040l-199 -10q-8 154 -117 236q-98 74 -260 73q-127 0 -215 -45q-111 -57 -111 -174q0 -154 240 -219l447 -119q240 -106 239 -366q0 -217 -176 -342q-158 -111 -385 -111q-279 0 -442 115q-184 131 -203 395l209 19q14 -373 428 -373q152 0 250 67q111 78 110 224 q0 164 -239 231l-447 113q-240 96 -239 325q0 199 165 314q147 102 357 102q240 0 391 -109q168 -119 197 -346z" />
<glyph unicode="T" d="M473 0v1290h-438v168h1069v-168h-438v-1290h-193z" />
<glyph unicode="U" horiz-adv-x="1400" d="M1255 1458v-979q0 -246 -147 -381t-408 -135q-260 0 -407.5 135t-147.5 381v979h193v-946q0 -381 362 -381t363 381v946h192z" />
<glyph unicode="V" horiz-adv-x="1249" d="M510 0l-487 1458h210l381 -1192h4l406 1192h203l-518 -1458h-199z" />
<glyph unicode="W" horiz-adv-x="2045" d="M455 0l-449 1458h207l340 -1139h4l367 1139h198l367 -1139h4l340 1139h207l-449 -1458h-190l-377 1192h-4l-375 -1192h-190z" />
<glyph unicode="X" horiz-adv-x="1249" d="M23 0l487 766l-440 692h229l326 -518l325 518h230l-441 -692l488 -766h-232l-370 596l-371 -596h-231z" />
<glyph unicode="Y" horiz-adv-x="1286" d="M547 0v672l-524 786h231l389 -604l389 604h232l-525 -786v-672h-192z" />
<glyph unicode="Z" horiz-adv-x="1251" d="M45 0v184l911 1106h-839v168h1050v-180l-915 -1110h954v-168h-1161z" />
<glyph unicode="[" horiz-adv-x="645" d="M223 -315v1773h385v-131h-217v-1511h217v-131h-385z" />
<glyph unicode="\" horiz-adv-x="681" d="M506 -37l-479 1532h149l479 -1532h-149z" />
<glyph unicode="]" horiz-adv-x="645" d="M37 -315v131h217v1511h-217v131h385v-1773h-385z" />
<glyph unicode="^" horiz-adv-x="1228" d="M96 526l459 867h119l459 -867h-156l-363 686l-362 -686h-156z" />
<glyph unicode="_" horiz-adv-x="1024" d="M0 -256v102h1024v-102h-1024z" />
<glyph unicode="`" horiz-adv-x="417" d="M197 1192l-267 289h222l182 -289h-137z" />
<glyph unicode="a" horiz-adv-x="1024" d="M702 365v112q-250 -35 -335 -67q-129 -51 -129 -154q0 -150 188 -150q121 0 198.5 70t77.5 189zM702 588v86q0 106 -52 152t-177 46q-190 0 -201 -200l-168 10q33 322 371 322q395 0 395 -304v-454q0 -111 72 -111q25 0 51 10v-139q-57 -14 -104 -14q-137 0 -170 135 q-137 -152 -348 -152q-131 0 -222.5 79t-91.5 192q0 188 172 264q133 60 473 78z" />
<glyph unicode="b" d="M117 0v1458h168v-602h4q109 147 313 148q236 0 361 -158q106 -139 106 -357q0 -221 -104 -354q-125 -160 -377 -160q-197 0 -301 142h-2v-117h-168zM889 489q0 160 -72 259q-80 113 -233 112q-139 0 -226 -112q-80 -104 -79 -259q0 -160 71 -258q80 -113 234 -112 q154 0 233 112q72 98 72 258z" />
<glyph unicode="c" horiz-adv-x="1062" d="M995 674l-180 -19q-18 100 -89 158.5t-171 58.5q-162 0 -242 -124q-63 -102 -63 -261q0 -160 67 -262q80 -119 234 -119q125 0 200.5 71t79.5 194l181 -15q-20 -176 -144.5 -278.5t-310.5 -102.5q-231 0 -359 137.5t-128 366.5q0 233 127 379t358 146q162 0 279 -82 q126 -88 161 -248z" />
<glyph unicode="d" d="M1022 1458v-1458h-168v117h-4q-100 -141 -299 -142q-252 0 -377 160q-104 133 -104 354q0 217 108 357q123 158 359 158q207 0 313 -148h4v602h168zM250 489q0 -160 72 -258q80 -113 233 -112q154 0 233 112q72 98 72 258q0 154 -80 259q-86 113 -225 112 q-154 0 -233 -112q-72 -99 -72 -259z" />
<glyph unicode="e" horiz-adv-x="1062" d="M993 453h-743q0 -152 76 -246q80 -100 219 -101q219 0 274 220l166 -21q-94 -326 -446 -330h-6q-213 0 -340 148q-123 141 -123 358q0 246 117.5 384.5t349.5 138.5q221 0 344 -148q113 -137 112 -364v-39zM250 584h563q-37 289 -295 288q-117 0 -192 -88 q-68 -81 -76 -200z" />
<glyph unicode="f" horiz-adv-x="569" d="M176 0v836h-162v143h162v174q0 160 65.5 232.5t207.5 72.5q41 0 106 -12v-127q-53 8 -92 8q-119 0 -119 -137v-211h182v-143h-182v-836h-168z" />
<glyph unicode="g" d="M539 860q-135 0 -215 -90q-86 -98 -86 -281q0 -160 77 -262q82 -109 224 -108q141 0 231 114q84 104 84 249v14q-8 364 -315 364zM854 844v135h168v-987q0 -451 -451 -451q-193 0 -311 82q-133 94 -143 277h180q-2 -113 78 -172q74 -55 190 -56q186 0 252 117 q37 70 37 223v140h-4q-137 -176 -334 -177q-168 0 -287 101q-160 135 -159 413q0 227 108 365q119 150 340 150q236 0 332 -158z" />
<glyph unicode="h" horiz-adv-x="1062" d="M129 0v1458h168v-610h4q100 156 287 156q346 0 346 -359v-645h-168v629q0 219 -207 219q-117 0 -189.5 -70.5t-72.5 -187.5v-590h-168z" />
<glyph unicode="i" horiz-adv-x="417" d="M125 0v979h168v-979h-168zM125 1266v192h168v-192h-168z" />
<glyph unicode="j" horiz-adv-x="417" d="M293 979v-1167q0 -150 -43 -213q-53 -82 -193 -82q-74 0 -110 8v143q8 0 27.5 -4t31.5 -4q119 0 119 113v1206h168zM125 1266v192h168v-192h-168z" />
<glyph unicode="k" horiz-adv-x="985" d="M129 0v1458h168v-899l385 416h203l-357 -387l441 -588h-211l-344 467l-117 -125v-342h-168z" />
<glyph unicode="l" horiz-adv-x="417" d="M125 0v1458h168v-1458h-168z" />
<glyph unicode="m" horiz-adv-x="1593" d="M129 0v979h156v-123h4q113 147 274 148q213 0 285 -170q53 74 136 122t161 48q319 0 319 -357v-647h-168v655q0 193 -172 193q-92 0 -161 -47q-82 -57 -82 -158v-643h-168v655q0 193 -172 193q-92 0 -162 -47q-82 -57 -82 -158v-643h-168z" />
<glyph unicode="n" horiz-adv-x="1062" d="M129 0v979h168v-131h4q100 156 287 156q346 0 346 -359v-645h-168v629q0 219 -207 219q-117 0 -189.5 -70.5t-72.5 -187.5v-590h-168z" />
<glyph unicode="o" horiz-adv-x="1097" d="M70 489q0 227 129 371t350 144t350 -143.5t129 -371.5q0 -227 -129 -370.5t-350 -143.5t-350 143.5t-129 370.5zM250 489q0 -152 59 -251q76 -131 240 -132q164 0 239 132q59 100 60 251q0 152 -60 252q-76 131 -239 131q-164 0 -240 -131q-59 -100 -59 -252z" />
<glyph unicode="p" d="M117 -459v1438h168v-117h2q43 59 128 100.5t185 41.5q242 0 365 -158q104 -137 104 -357q0 -217 -106 -354q-125 -160 -361 -160q-205 0 -313 148h-4v-582h-168zM889 489q0 160 -72 259q-80 113 -233 112q-154 0 -234 -112q-72 -98 -71 -259q0 -154 79 -258 q86 -113 226 -112q154 0 233 112q72 98 72 258z" />
<glyph unicode="q" d="M1022 979v-1438h-168v582h-4q-106 -147 -313 -148q-236 0 -359 160q-109 137 -108 354q0 221 106 357q123 158 369 158q88 0 176 -41t129 -101h4v117h168zM250 489q0 -160 72 -258q80 -113 233 -112q139 0 225 112q80 104 80 258q0 160 -72 259q-80 113 -233 112 q-154 0 -233 -112q-72 -99 -72 -259z" />
<glyph unicode="r" horiz-adv-x="681" d="M129 0v979h168v-168h4q59 98 138 139t208 41v-184q-66 4 -112 4q-113 0 -181 -88q-57 -78 -57 -174v-549h-168z" />
<glyph unicode="s" horiz-adv-x="985" d="M63 322l181 22q0 -125 88 -186q74 -51 190 -52q219 0 219 168q0 98 -166 140l-307 73q-166 68 -166 232q0 139 119 217q102 68 250 68q141 0 260 -66q160 -88 160 -254l-168 -22q0 102 -74 159q-68 51 -170 51q-209 0 -209 -145q0 -88 168 -129q291 -72 316 -82 q168 -74 168 -240q0 -145 -131 -227q-119 -74 -293 -74q-176 0 -289 80q-130 91 -146 267z" />
<glyph unicode="t" horiz-adv-x="569" d="M14 836v143h162v305h168v-305h182v-143h-182v-623q0 -47 8 -66q14 -29 60 -28q47 0 104 20v-143q-92 -20 -166 -21q-117 0 -151 56q-23 35 -23 137v668h-162z" />
<glyph unicode="u" horiz-adv-x="1062" d="M934 979v-979h-168v131h-4q-100 -156 -287 -156q-346 0 -346 359v645h168v-645q0 -203 207 -203q117 0 189.5 70.5t72.5 187.5v590h168z" />
<glyph unicode="v" horiz-adv-x="909" d="M383 0l-360 979h174l262 -729h4l252 729h172l-346 -979h-158z" />
<glyph unicode="w" horiz-adv-x="1517" d="M367 0l-340 979h182l244 -719h4l233 719h144l229 -719h4l254 719h170l-356 -979h-146l-231 719h-4l-238 -719h-149z" />
<glyph unicode="x" horiz-adv-x="833" d="M23 0l299 496l-285 483h190l191 -334l203 334h190l-299 -483l299 -496h-190l-203 344l-209 -344h-186z" />
<glyph unicode="y" horiz-adv-x="909" d="M455 240l256 739h172l-424 -1194q-47 -131 -97 -188q-72 -80 -194 -80q-59 0 -141 28v146q61 -18 108 -19q109 0 158 138l67 188l-329 981h178l242 -739h4z" />
<glyph unicode="z" horiz-adv-x="872" d="M47 0v143l559 693h-508v143h715v-139l-567 -697h579v-143h-778z" />
<glyph unicode="{" horiz-adv-x="681" d="M573 1458v-131h-98q-86 0 -86 -102v-359q0 -233 -151 -295q152 -61 151 -295v-358q0 -102 86 -102h98v-131h-112q-123 0 -181.5 55t-58.5 182v354q0 229 -151 230v131q152 0 151 229v355q0 127 58.5 182t181.5 55h112z" />
<glyph unicode="|" horiz-adv-x="454" d="M156 -438v2048h143v-2048h-143z" />
<glyph unicode="}" horiz-adv-x="681" d="M109 -315v131h98q86 0 86 102v358q0 233 151 295q-152 61 -151 295v359q0 102 -86 102h-98v131h112q123 0 181.5 -55t58.5 -182v-355q0 -229 151 -229v-131q-152 0 -151 -230v-354q0 -127 -58.5 -182t-181.5 -55h-112z" />
<glyph unicode="~" horiz-adv-x="1228" d="M215 371l-74 110q92 176 256 176q82 0 236 -69q145 -66 201 -66q88 0 180 144l73 -111q-61 -86 -102 -121q-70 -55 -154 -55q-76 0 -210 67.5t-234 67.5q-106 0 -172 -143z" />
<glyph unicode="&#xa1;" horiz-adv-x="606" d="M336 698l51 -553v-604h-168v604l51 553h66zM213 807v192h180v-192h-180z" />
<glyph unicode="&#xa2;" d="M518 109v757q-127 -25 -188 -143q-51 -96 -51 -236q0 -143 55 -241q61 -114 184 -137zM518 -233v210q-201 18 -310.5 154.5t-109.5 347.5q0 217 109.5 357.5t310.5 160.5v203h119v-201q143 -12 246 -92q111 -86 141 -233l-180 -19q-33 180 -207 213v-762q213 37 223 265 l180 -15q-20 -164 -128.5 -265t-274.5 -116v-208h-119z" />
<glyph unicode="&#xa3;" d="M158 154q0 -47 80 -48q74 0 98 48q-70 45 -107 45q-71 0 -71 -45zM53 559v131h215q-137 158 -137 314q0 184 143 299q129 102 306 102q438 0 458 -387l-180 -29q-25 260 -270 260q-117 0 -189 -80q-59 -68 -59 -149q0 -82 53 -174l101 -156h393v-131h-330q27 -88 27 -164 q0 -88 -54 -174q143 -66 224 -65q88 0 135 67q43 59 43 152h180q-6 -174 -92 -277q-92 -111 -254 -110q-96 0 -313 108q-92 -109 -222 -108q-88 0 -143 41q-61 43 -61 127q0 98 77 143q55 31 127 31q80 0 168 -49q16 43 17 79q0 94 -58 199h-305z" />
<glyph unicode="&#xa4;" d="M569 1206q193 0 305 -98l111 109l105 -99l-113 -110q102 -131 102 -312q0 -180 -102 -311l113 -111l-105 -98l-111 109q-113 -98 -305 -99q-193 0 -305 99l-110 -109l-105 98l113 111q-102 131 -103 311q0 180 103 312l-113 110l105 99l110 -109q112 98 305 98zM203 696 q0 -166 100 -272.5t266 -106.5t266.5 106.5t100.5 272.5t-100.5 272.5t-266.5 106.5t-266 -106.5t-100 -272.5z" />
<glyph unicode="&#xa5;" d="M485 0v338h-299v119h299v174h-299v119h232l-400 643h205l346 -578l346 578h205l-399 -643h231v-119h-299v-174h299v-119h-299v-338h-168z" />
<glyph unicode="&#xa6;" horiz-adv-x="454" d="M156 -182v512h143v-512h-143zM156 842v512h143v-512h-143z" />
<glyph unicode="&#xa7;" d="M391 451l281 -146q92 16 157 66q74 59 74 139q0 104 -125 168l-379 194q-49 -12 -94 -53q-70 -66 -69 -164q-1 -124 155 -204zM115 -240l86 148q233 -123 379 -123q221 0 221 158q0 68 -78 125q-18 12 -137 73l-273 142q-133 70 -188 139q-70 86 -70 225q0 223 221 311 q-127 102 -126 226q0 150 135 235q117 76 274 76q211 0 440 -147l-81 -140q-193 131 -361 131q-84 0 -143 -32q-72 -39 -72 -113q0 -55 31 -88q18 -20 80 -51l430 -221q201 -102 200 -293q0 -125 -64.5 -212t-184.5 -114q160 -90 159 -276q0 -147 -119 -234 q-104 -76 -260 -76q-231 0 -499 131z" />
<glyph unicode="&#xa8;" horiz-adv-x="417" d="M-45 1221v204h180v-204h-180zM283 1221v204h180v-204h-180z" />
<glyph unicode="&#xa9;" horiz-adv-x="1638" d="M1079 578h142q-18 -147 -125 -236.5t-267 -89.5q-190 0 -313 137t-123 342q0 209 121 344t324 135q150 0 254 -82q111 -88 129 -237h-142q-10 82 -67 137q-66 63 -172 64q-139 0 -224 -109q-80 -100 -79 -250q0 -141 84 -251.5t208 -110.5q215 0 250 207zM53 729 q0 317 224.5 541.5t541.5 224.5t541.5 -224t224.5 -542q0 -317 -224 -541.5t-542 -224.5q-317 0 -541.5 224.5t-224.5 541.5zM184 729q0 -264 187.5 -455.5t447.5 -191.5t447.5 191.5t187.5 455.5t-187.5 455.5t-447.5 191.5t-447.5 -191.5t-187.5 -455.5z" />
<glyph unicode="&#xaa;" horiz-adv-x="665" d="M451 1022v59q-158 -23 -209 -41q-82 -27 -82 -84q0 -74 121 -73q88 0 122 22q48 31 48 117zM451 1163v43q0 57 -31 81t-109 24q-125 0 -133 -105l-106 6q20 193 241 193q256 0 256 -182v-244q0 -57 8.5 -77.5t40.5 -18.5q10 0 31 6v-90q-35 -10 -59 -11q-94 0 -121 91 q-84 -90 -225 -91q-84 0 -143.5 47.5t-59.5 114.5q0 131 154 178q55 17 256 35z" />
<glyph unicode="&#xab;" horiz-adv-x="833" d="M442 610l279 240v-191l-158 -139l158 -139v-191l-279 240v180zM113 610l278 240v-191l-158 -139l158 -139v-191l-278 240v180z" />
<glyph unicode="&#xac;" horiz-adv-x="1228" d="M989 221v428h-893v144h1037v-572h-144z" />
<glyph unicode="&#xad;" horiz-adv-x="1228" d="M96 446v144h1037v-144h-1037z" />
<glyph unicode="&#x2212;" horiz-adv-x="1228" d="M96 446v144h1037v-144h-1037z" />
<glyph unicode="&#xae;" horiz-adv-x="1638" d="M541 279v901h333q297 0 297 -252q0 -219 -219 -256l252 -393h-149l-248 391h-135v-391h-131zM672 1061v-273h155q100 0 144 21q70 31 69 119q0 133 -200 133h-168zM53 729q0 317 224.5 541.5t541.5 224.5t541.5 -224t224.5 -542q0 -317 -224 -541.5t-542 -224.5 q-317 0 -541.5 224.5t-224.5 541.5zM184 729q0 -264 187.5 -455.5t447.5 -191.5t447.5 191.5t187.5 455.5t-187.5 455.5t-447.5 191.5t-447.5 -191.5t-187.5 -455.5z" />
<glyph unicode="&#xaf;" horiz-adv-x="417" d="M-72 1274v119h561v-119h-561z" />
<glyph unicode="&#x2c9;" horiz-adv-x="417" d="M-72 1274v119h561v-119h-561z" />
<glyph unicode="&#xb0;" horiz-adv-x="819" d="M223 1112q0 -72 57.5 -129t129.5 -57t129 57t57 129t-57.5 129t-128.5 57q-72 0 -129.5 -57t-57.5 -129zM117 1112q0 121 86 207t207 86t206.5 -86t85.5 -207t-86 -207t-206 -86q-121 0 -207 86t-86 207z" />
<glyph unicode="&#xb1;" horiz-adv-x="1228" d="M543 211v340h-447v143h447v342h143v-342h447v-143h-447v-340h-143zM96 0v143h1037v-143h-1037z" />
<glyph unicode="&#xb2;" horiz-adv-x="739" d="M82 561v127q147 72 274 191q150 143 150 256q0 139 -144 139q-137 0 -137 -125q0 -35 13 -105h-144q-12 53 -12 101q0 260 289 260q131 0 211 -74t80 -194q0 -137 -140 -275q-96 -96 -227 -166v-4h377v-131h-590z" />
<glyph unicode="&#xb3;" horiz-adv-x="739" d="M285 922v137h45q27 -2 41 -2q143 0 143 100q0 117 -139 117q-162 0 -158 -160l-143 6q10 285 303 285q145 0 225 -78q68 -66 68 -160q0 -137 -107 -170v-4q133 -49 133 -198q0 -92 -57 -156q-82 -90 -266 -90q-152 0 -240 71.5t-90 213.5h143q16 -154 189 -154 q166 0 166 125q0 121 -174 121q-53 0 -82 -4z" />
<glyph unicode="&#xb4;" horiz-adv-x="417" d="M84 1192l182 289h221l-266 -289h-137z" />
<glyph unicode="&#xb5;" horiz-adv-x="1062" d="M934 979v-979h-168v131h-4q-100 -156 -287 -156q-119 0 -178 50v-484h-168v1438h168v-645q0 -203 207 -203q117 0 189.5 70.5t72.5 187.5v590h168z" />
<glyph unicode="&#x3bc;" horiz-adv-x="1062" d="M934 979v-979h-168v131h-4q-100 -156 -287 -156q-119 0 -178 50v-484h-168v1438h168v-645q0 -203 207 -203q117 0 189.5 70.5t72.5 187.5v590h168z" />
<glyph unicode="&#xb6;" horiz-adv-x="1228" d="M555 -334v1014q-184 0 -306 112.5t-122 272.5q0 193 121 293t340 100h467v-1792h-119v1698h-262v-1698h-119z" />
<glyph unicode="&#xb7;" horiz-adv-x="569" d="M168 635q0 53 32.5 87t84.5 34q51 0 83.5 -34t32.5 -87t-32.5 -88t-83.5 -35t-84 35t-33 88z" />
<glyph unicode="&#x2219;" horiz-adv-x="569" d="M168 635q0 53 32.5 87t84.5 34q51 0 83.5 -34t32.5 -87t-32.5 -88t-83.5 -35t-84 35t-33 88z" />
<glyph unicode="&#xb8;" horiz-adv-x="417" d="M-10 -416l35 82q76 -31 133 -31q115 0 114 82q0 82 -98 82q-33 0 -80 -14l-35 39l131 176h97l-94 -127h4q10 0 30.5 4t30.5 4q72 0 121 -40t49 -111q0 -88 -74 -144q-68 -47 -159 -47q-96 0 -205 45z" />
<glyph unicode="&#xb9;" horiz-adv-x="739" d="M328 561v586h-181v106q98 6 142 27q66 31 84 113h110v-832h-155z" />
<glyph unicode="&#xba;" horiz-adv-x="714" d="M47 1096q0 139 85 224t224 85q141 0 226.5 -84t85.5 -225q0 -139 -86 -223.5t-226 -84.5q-139 0 -224 84.5t-85 223.5zM178 1096q0 -213 178 -213q180 0 181 213q0 215 -181 215q-178 0 -178 -215z" />
<glyph unicode="&#xbb;" horiz-adv-x="833" d="M391 430l-278 -240v191l157 139l-157 139v191l278 -240v-180zM721 430l-279 -240v191l158 139l-158 139v191l279 -240v-180z" />
<glyph unicode="&#xbc;" horiz-adv-x="1708" d="M1386 0v172h-391v125l420 534h127v-528h111v-131h-111v-172h-156zM1386 303v318h-4l-243 -318h247zM338 -66l881 1524h141l-881 -1524h-141zM293 561v586h-180v106q100 6 147 29q59 31 78 111h111v-832h-156z" />
<glyph unicode="&#xbd;" horiz-adv-x="1708" d="M242 -66l880 1524h142l-881 -1524h-141zM293 561v586h-180v106q100 6 147 29q59 31 78 111h111v-832h-156zM971 0v127q147 72 274 190q150 143 150 256q0 139 -144 140q-137 0 -137 -125q0 -35 12 -105h-143q-12 53 -12 101q0 260 289 260q131 0 210.5 -74t79.5 -195 q0 -137 -139 -274q-96 -96 -227 -166v-4h377v-131h-590z" />
<glyph unicode="&#xbe;" horiz-adv-x="1708" d="M1386 0v172h-391v125l420 534h127v-528h111v-131h-111v-172h-156zM1386 303v318h-4l-243 -318h247zM461 -66l880 1524h142l-881 -1524h-141zM354 922v137h45q27 -2 41 -2q143 0 144 100q0 117 -140 117q-162 0 -157 -160l-144 6q10 285 303 285q145 0 226 -78 q68 -66 67 -160q0 -137 -106 -170v-4q133 -49 133 -198q0 -92 -57 -156q-82 -90 -267 -90q-152 0 -239.5 71.5t-89.5 213.5h143q16 -154 188 -154q166 0 166 125q0 121 -174 121q-53 0 -82 -4z" />
<glyph unicode="&#xbf;" horiz-adv-x="1175" d="M680 684v-487h-76q-317 0 -317 -267q0 -104 87 -181t197 -77q299 0 306 340h180q2 -221 -129 -358t-338 -137q-203 0 -332 112q-139 119 -139 328q0 176 108.5 286.5t284.5 121.5v319h168zM686 999v-192h-180v192h180z" />
<glyph unicode="&#xc0;" horiz-adv-x="1327" d="M18 0l557 1458h205l529 -1458h-207l-156 446h-553l-168 -446h-207zM887 614l-209 605h-4l-221 -605h434zM652 1618l-267 289h222l182 -289h-137z" />
<glyph unicode="&#xc1;" horiz-adv-x="1327" d="M539 1618l182 289h221l-266 -289h-137zM18 0l557 1458h205l529 -1458h-207l-156 446h-553l-168 -446h-207zM887 614l-209 605h-4l-221 -605h434z" />
<glyph unicode="&#xc2;" horiz-adv-x="1327" d="M18 0l557 1458h205l529 -1458h-207l-156 446h-553l-168 -446h-207zM887 614l-209 605h-4l-221 -605h434zM365 1618l203 289h188l207 -289h-166l-135 194l-135 -194h-162z" />
<glyph unicode="&#xc3;" horiz-adv-x="1327" d="M18 0l557 1458h205l529 -1458h-207l-156 446h-553l-168 -446h-207zM887 614l-209 605h-4l-221 -605h434zM414 1636h-98q8 96 63.5 159t149.5 63q53 0 147 -38t127 -38q111 0 111 92h98q-12 -94 -63 -156q-59 -68 -150 -67q-51 0 -147.5 37.5t-147.5 37.5 q-33 0 -61.5 -28.5t-28.5 -61.5z" />
<glyph unicode="&#xc4;" horiz-adv-x="1327" d="M18 0l557 1458h205l529 -1458h-207l-156 446h-553l-168 -446h-207zM887 614l-209 605h-4l-221 -605h434zM410 1647v204h180v-204h-180zM738 1647v204h180v-204h-180z" />
<glyph unicode="&#xc5;" horiz-adv-x="1327" d="M18 0l557 1458h205l529 -1458h-207l-156 446h-553l-168 -446h-207zM887 614l-209 605h-4l-221 -605h434zM469 1843q0 86 61.5 147.5t147.5 61.5t147.5 -61.5t61.5 -147.5t-61.5 -147.5t-147.5 -61.5t-147.5 61.5t-61.5 147.5zM551 1843q0 -51 38 -89t89 -38t89 38t38 89 t-38 89t-89 38t-89 -38t-38 -89z" />
<glyph unicode="&#xc6;" horiz-adv-x="2162" d="M1063 0v479h-518l-322 -479h-223l989 1458h1106v-168h-840v-475h639v-168h-639v-479h873v-168h-1065zM1063 647v619h-4l-402 -619h406z" />
<glyph unicode="&#xc7;" horiz-adv-x="1593" d="M659 -176l107 143q-315 20 -494 236q-172 205 -172 526q0 344 195 551q199 215 539 215q240 0 411 -111q186 -119 250 -340l-201 -36q-37 152 -169 241.5t-291 89.5q-256 0 -396 -182q-129 -166 -129 -428t129 -428q139 -182 396 -182q193 0 321.5 119.5t155.5 312.5 l202 -25q-45 -240 -226 -395.5t-425 -165.5l-69 -92h4q10 0 30.5 4t30.5 4q72 0 121 -40t49 -111q0 -88 -74 -144q-68 -47 -159 -47q-94 0 -205 45l35 82q74 -31 133 -31q115 0 114 82q0 82 -98 82q-35 0 -80 -14z" />
<glyph unicode="&#xc8;" horiz-adv-x="1251" d="M145 0v1458h1024v-168h-831v-450h723v-168h-723v-504h852v-168h-1045zM611 1618l-267 289h222l182 -289h-137z" />
<glyph unicode="&#xc9;" horiz-adv-x="1251" d="M502 1618l182 289h221l-266 -289h-137zM145 0v1458h1024v-168h-831v-450h723v-168h-723v-504h852v-168h-1045z" />
<glyph unicode="&#xca;" horiz-adv-x="1251" d="M145 0v1458h1024v-168h-831v-450h723v-168h-723v-504h852v-168h-1045zM328 1618l203 289h188l207 -289h-166l-135 194l-135 -194h-162z" />
<glyph unicode="&#xcb;" horiz-adv-x="1251" d="M145 0v1458h1024v-168h-831v-450h723v-168h-723v-504h852v-168h-1045zM373 1647v204h180v-204h-180zM701 1647v204h180v-204h-180z" />
<glyph unicode="&#xcc;" horiz-adv-x="528" d="M168 0v1458h192v-1458h-192zM254 1618l-267 289h222l182 -289h-137z" />
<glyph unicode="&#xcd;" horiz-adv-x="528" d="M137 1618l182 289h221l-266 -289h-137zM168 0v1458h192v-1458h-192z" />
<glyph unicode="&#xce;" horiz-adv-x="528" d="M168 0v1458h192v-1458h-192zM-33 1618l203 289h188l207 -289h-166l-135 194l-135 -194h-162z" />
<glyph unicode="&#xcf;" horiz-adv-x="528" d="M12 1647v204h180v-204h-180zM340 1647v204h180v-204h-180zM168 0v1458h192v-1458h-192z" />
<glyph unicode="&#xd0;" horiz-adv-x="1441" d="M145 0v696h-139v144h139v618h551q322 0 490 -205q156 -190 155 -532q0 -326 -159 -516q-170 -205 -486 -205h-551zM338 696v-528h326q469 0 469 571q0 551 -453 551h-342v-450h418v-144h-418z" />
<glyph unicode="&#xd1;" horiz-adv-x="1441" d="M471 1636h-98q8 96 63.5 159t149.5 63q53 0 147 -38t127 -38q111 0 111 92h98q-12 -94 -63 -156q-59 -68 -150 -67q-51 0 -147.5 37.5t-147.5 37.5q-33 0 -61.5 -28.5t-28.5 -61.5zM145 0v1458h195l772 -1151h4v1151h180v-1458h-192l-774 1149h-4v-1149h-181z" />
<glyph unicode="&#xd2;" horiz-adv-x="1667" d="M100 729q0 344 198 555t536 211t535.5 -211t197.5 -555t-198 -555t-535 -211q-338 0 -536 211t-198 555zM309 729q0 -260 127 -426q141 -184 398 -184q256 0 397 184q127 166 127 426t-127 426q-141 184 -397 184t-398 -184q-127 -166 -127 -426zM822 1618l-267 289h222 l182 -289h-137z" />
<glyph unicode="&#xd3;" horiz-adv-x="1667" d="M100 729q0 344 198 555t536 211t535.5 -211t197.5 -555t-198 -555t-535 -211q-338 0 -536 211t-198 555zM309 729q0 -260 127 -426q141 -184 398 -184q256 0 397 184q127 166 127 426t-127 426q-141 184 -397 184t-398 -184q-127 -166 -127 -426zM705 1618l182 289h221 l-266 -289h-137z" />
<glyph unicode="&#xd4;" horiz-adv-x="1667" d="M100 729q0 344 198 555t536 211t535.5 -211t197.5 -555t-198 -555t-535 -211q-338 0 -536 211t-198 555zM309 729q0 -260 127 -426q141 -184 398 -184q256 0 397 184q127 166 127 426t-127 426q-141 184 -397 184t-398 -184q-127 -166 -127 -426zM535 1618l203 289h188 l207 -289h-166l-135 194l-135 -194h-162z" />
<glyph unicode="&#xd5;" horiz-adv-x="1667" d="M584 1636h-98q8 96 63.5 159t149.5 63q53 0 147 -38t127 -38q111 0 111 92h98q-12 -94 -63 -156q-59 -68 -150 -67q-51 0 -147.5 37.5t-147.5 37.5q-33 0 -61.5 -28.5t-28.5 -61.5zM100 729q0 344 198 555t536 211t535.5 -211t197.5 -555t-198 -555t-535 -211 q-338 0 -536 211t-198 555zM309 729q0 -260 127 -426q141 -184 398 -184q256 0 397 184q127 166 127 426t-127 426q-141 184 -397 184t-398 -184q-127 -166 -127 -426z" />
<glyph unicode="&#xd6;" horiz-adv-x="1667" d="M100 729q0 344 198 555t536 211t535.5 -211t197.5 -555t-198 -555t-535 -211q-338 0 -536 211t-198 555zM309 729q0 -260 127 -426q141 -184 398 -184q256 0 397 184q127 166 127 426t-127 426q-141 184 -397 184t-398 -184q-127 -166 -127 -426zM580 1647v204h180v-204 h-180zM908 1647v204h180v-204h-180z" />
<glyph unicode="&#xd7;" horiz-adv-x="1228" d="M987 45l-373 373l-370 -373l-103 100l373 373l-373 373l103 100l370 -370l373 370l100 -100l-370 -373l370 -373z" />
<glyph unicode="&#xd8;" horiz-adv-x="1667" d="M379 397l823 791q-139 152 -368 151q-256 0 -396 -182q-129 -166 -129 -428q0 -191 70 -332zM1284 1069l-823 -795q139 -156 373 -155q256 0 395 182q129 166 129 428q0 190 -74 340zM92 121l141 135q-133 197 -133 473q0 344 195 551q199 215 539 215q311 0 501 -180 l140 135l102 -100l-147 -142q137 -193 137 -479q0 -344 -195 -551q-199 -215 -538 -215q-307 0 -506 182l-133 -127z" />
<glyph unicode="&#xd9;" horiz-adv-x="1400" d="M1255 1458v-979q0 -246 -147 -381t-408 -135q-260 0 -407.5 135t-147.5 381v979h193v-946q0 -381 362 -381t363 381v946h192zM689 1618l-267 289h222l182 -289h-137z" />
<glyph unicode="&#xda;" horiz-adv-x="1400" d="M1255 1458v-979q0 -246 -147 -381t-408 -135q-260 0 -407.5 135t-147.5 381v979h193v-946q0 -381 362 -381t363 381v946h192zM576 1618l182 289h221l-266 -289h-137z" />
<glyph unicode="&#xdb;" horiz-adv-x="1400" d="M1255 1458v-979q0 -246 -147 -381t-408 -135q-260 0 -407.5 135t-147.5 381v979h193v-946q0 -381 362 -381t363 381v946h192zM402 1618l203 289h188l207 -289h-166l-135 194l-135 -194h-162z" />
<glyph unicode="&#xdc;" horiz-adv-x="1400" d="M1255 1458v-979q0 -246 -147 -381t-408 -135q-260 0 -407.5 135t-147.5 381v979h193v-946q0 -381 362 -381t363 381v946h192zM449 1647v204h180v-204h-180zM777 1647v204h180v-204h-180z" />
<glyph unicode="&#xdd;" horiz-adv-x="1286" d="M516 1618l182 289h221l-266 -289h-137zM547 0v672l-524 786h231l389 -604l389 604h232l-525 -786v-672h-192z" />
<glyph unicode="&#xde;" horiz-adv-x="1290" d="M145 0v1458h193v-213h536q184 0 285 -121q96 -113 96 -299q0 -180 -108.5 -297.5t-288.5 -117.5h-520v-410h-193zM338 1077v-499h446q279 0 279 249q0 250 -252 250h-473z" />
<glyph unicode="&#xdf;" d="M1034 485q0 -510 -446 -510q-84 0 -193 33v164q109 -41 207 -41q264 0 264 338q0 188 -139 264q-104 57 -317 58v157h36q23 -2 35 -2q272 0 273 203q0 190 -226 190q-231 0 -231 -241v-1098h-168v1090q0 193 104.5 299t292.5 106q395 0 396 -346q0 -92 -47.5 -167 t-129.5 -105v-5q145 -29 222 -137q67 -100 67 -250z" />
<glyph unicode="&#xe0;" horiz-adv-x="1024" d="M500 1172l-267 289h222l182 -289h-137zM702 365v112q-250 -35 -335 -67q-129 -51 -129 -154q0 -150 188 -150q121 0 198.5 70t77.5 189zM702 588v86q0 106 -52 152t-177 46q-190 0 -201 -200l-168 10q33 322 371 322q395 0 395 -304v-454q0 -111 72 -111q25 0 51 10v-139 q-57 -14 -104 -14q-137 0 -170 135q-137 -152 -348 -152q-131 0 -222.5 79t-91.5 192q0 188 172 264q133 60 473 78z" />
<glyph unicode="&#xe1;" horiz-adv-x="1024" d="M387 1172l182 289h221l-266 -289h-137zM702 365v112q-250 -35 -335 -67q-129 -51 -129 -154q0 -150 188 -150q121 0 198.5 70t77.5 189zM702 588v86q0 106 -52 152t-177 46q-190 0 -201 -200l-168 10q33 322 371 322q395 0 395 -304v-454q0 -111 72 -111q25 0 51 10v-139 q-57 -14 -104 -14q-137 0 -170 135q-137 -152 -348 -152q-131 0 -222.5 79t-91.5 192q0 188 172 264q133 60 473 78z" />
<glyph unicode="&#xe2;" horiz-adv-x="1024" d="M702 365v112q-250 -35 -335 -67q-129 -51 -129 -154q0 -150 188 -150q121 0 198.5 70t77.5 189zM702 588v86q0 106 -52 152t-177 46q-190 0 -201 -200l-168 10q33 322 371 322q395 0 395 -304v-454q0 -111 72 -111q25 0 51 10v-139q-57 -14 -104 -14q-137 0 -170 135 q-137 -152 -348 -152q-131 0 -222.5 79t-91.5 192q0 188 172 264q133 60 473 78zM215 1172l203 289h188l207 -289h-166l-135 194l-135 -194h-162z" />
<glyph unicode="&#xe3;" horiz-adv-x="1024" d="M702 365v112q-250 -35 -335 -67q-129 -51 -129 -154q0 -150 188 -150q121 0 198.5 70t77.5 189zM702 588v86q0 106 -52 152t-177 46q-190 0 -201 -200l-168 10q33 322 371 322q395 0 395 -304v-454q0 -111 72 -111q25 0 51 10v-139q-57 -14 -104 -14q-137 0 -170 135 q-137 -152 -348 -152q-131 0 -222.5 79t-91.5 192q0 188 172 264q133 60 473 78zM262 1190h-98q8 96 63.5 159t149.5 63q53 0 147 -38t127 -38q111 0 111 92h98q-12 -94 -63 -156q-59 -68 -150 -67q-51 0 -147.5 37.5t-147.5 37.5q-33 0 -61.5 -28.5t-28.5 -61.5z" />
<glyph unicode="&#xe4;" horiz-adv-x="1024" d="M889 -8zM371 -25zM702 365v112q-215 -29 -280 -49q-184 -55 -184 -172q0 -150 188 -150q121 0 198.5 70t77.5 189zM702 588v86q0 113 -61 157q-51 41 -168 41q-190 0 -201 -200l-168 10q33 322 371 322q395 0 395 -304v-454q0 -111 72 -111q25 0 51 10v-139 q-57 -14 -104 -14q-137 0 -170 135q-137 -152 -348 -152q-123 0 -215 72q-98 78 -99 199q0 211 236 286q116 40 409 56zM258 1200v205h180v-205h-180zM586 1200v205h180v-205h-180z" />
<glyph unicode="&#xe5;" horiz-adv-x="1024" d="M702 365v112q-250 -35 -335 -67q-129 -51 -129 -154q0 -150 188 -150q121 0 198.5 70t77.5 189zM702 588v86q0 106 -52 152t-177 46q-190 0 -201 -200l-168 10q33 322 371 322q395 0 395 -304v-454q0 -111 72 -111q25 0 51 10v-139q-57 -14 -104 -14q-137 0 -170 135 q-137 -152 -348 -152q-131 0 -222.5 79t-91.5 192q0 188 172 264q133 60 473 78zM303 1346q0 86 61.5 147.5t147.5 61.5t147.5 -61.5t61.5 -147.5t-61.5 -147.5t-147.5 -61.5t-147.5 61.5t-61.5 147.5zM385 1346q0 -51 38 -89t89 -38t89 38t38 89t-38 89t-89 38t-89 -38 t-38 -89z" />
<glyph unicode="&#xe6;" horiz-adv-x="1669" d="M893 571h526q-14 125 -80 209q-76 92 -192 92q-113 0 -185.5 -93t-68.5 -208zM1415 315l168 -24q-37 -150 -166 -236q-119 -80 -270 -80q-154 0 -264 86q-43 33 -101 109q-100 -111 -186 -153t-223 -42q-131 0 -223.5 77t-92.5 184q0 182 144 264q129 72 389 71h135 q0 301 -229 301q-106 0 -156.5 -46t-67.5 -154l-168 10q55 322 371 322q242 0 336 -175q125 174 332 175q221 0 344 -166q113 -152 112 -398h-706q-2 -135 65 -229q76 -102 207 -105q199 -2 250 209zM725 440h-113q-375 0 -374 -184q0 -145 188 -145q141 0 223 104 q76 92 76 225z" />
<glyph unicode="&#xe7;" horiz-adv-x="1062" d="M383 -176l115 156q-205 18 -320 157q-109 133 -108 342q0 233 125 375q129 150 360 150q164 0 283 -84q123 -90 157 -246l-180 -19q-18 98 -89 157.5t-171 59.5q-158 0 -238 -118q-68 -100 -67 -267q0 -162 67 -262q80 -119 234 -119q125 0 200.5 71t79.5 194l181 -15 q-20 -168 -133 -268t-285 -111l-78 -104h4q10 0 30.5 4t31.5 4q72 0 121 -40t49 -111q0 -88 -74 -144q-68 -47 -160 -47q-96 0 -205 45l35 82q74 -31 133 -31q115 0 115 82t-98 82q-35 0 -80 -14z" />
<glyph unicode="&#xe8;" horiz-adv-x="1062" d="M993 453h-743q0 -152 76 -246q80 -100 219 -101q219 0 274 220l166 -21q-94 -326 -446 -330h-6q-213 0 -340 148q-123 141 -123 358q0 246 117.5 384.5t349.5 138.5q221 0 344 -148q113 -137 112 -364v-39zM250 584h563q-37 289 -295 288q-117 0 -192 -88 q-68 -81 -76 -200zM521 1172l-267 289h222l182 -289h-137z" />
<glyph unicode="&#xe9;" horiz-adv-x="1062" d="M410 1174l182 289h221l-266 -289h-137zM993 453h-743q0 -152 76 -246q80 -100 219 -101q219 0 274 220l166 -21q-94 -326 -446 -330h-6q-213 0 -340 148q-123 141 -123 358q0 246 117.5 384.5t349.5 138.5q221 0 344 -148q113 -137 112 -364v-39zM250 584h563 q-37 289 -295 288q-117 0 -192 -88q-68 -81 -76 -200z" />
<glyph unicode="&#xea;" horiz-adv-x="1062" d="M234 1172l203 289h188l207 -289h-166l-135 194l-135 -194h-162zM993 453h-743q0 -152 76 -246q80 -100 219 -101q219 0 274 220l166 -21q-94 -326 -446 -330h-6q-213 0 -340 148q-123 141 -123 358q0 246 117.5 384.5t349.5 138.5q221 0 344 -148q113 -137 112 -364v-39z M250 584h563q-37 289 -295 288q-117 0 -192 -88q-68 -81 -76 -200z" />
<glyph unicode="&#xeb;" horiz-adv-x="1062" d="M993 453h-743q0 -152 76 -246q80 -100 219 -101q219 0 274 220l166 -21q-94 -326 -446 -330h-6q-213 0 -340 148q-123 141 -123 358q0 246 117.5 384.5t349.5 138.5q221 0 344 -148q113 -137 112 -364v-39zM250 584h563q-37 289 -295 288q-117 0 -192 -88 q-68 -81 -76 -200zM279 1203v204h180v-204h-180zM607 1203v204h180v-204h-180z" />
<glyph unicode="&#xec;" horiz-adv-x="417" d="M125 0v979h168v-979h-168zM197 1172l-267 289h222l182 -289h-137z" />
<glyph unicode="&#xed;" horiz-adv-x="417" d="M84 1174l182 289h221l-266 -289h-137zM125 0v979h168v-979h-168z" />
<glyph unicode="&#xee;" horiz-adv-x="417" d="M125 0v979h168v-979h-168zM-90 1172l203 289h188l207 -289h-166l-135 194l-135 -194h-162z" />
<glyph unicode="&#xef;" horiz-adv-x="417" d="M125 0v979h168v-979h-168zM-45 1201v204h180v-204h-180zM283 1201v204h180v-204h-180z" />
<glyph unicode="&#xf0;" horiz-adv-x="1097" d="M295 1110l-70 70l199 110q-25 23 -162 103l131 102q92 -45 187 -117l206 117l70 -70l-194 -110q367 -307 366 -762q0 -256 -115 -410q-127 -168 -364 -168q-221 0 -350 143.5t-129 370.5t129 371t350 144q131 0 215 -95v6q-88 199 -254 316zM250 489q0 -152 59 -251 q76 -131 240 -132q164 0 239 132q59 100 60 251q0 152 -60 252q-76 131 -239 131q-164 0 -240 -131q-59 -100 -59 -252z" />
<glyph unicode="&#xf1;" horiz-adv-x="1062" d="M283 1190h-98q8 96 63.5 159t149.5 63q53 0 147 -38t127 -38q111 0 111 92h98q-12 -94 -63 -156q-59 -68 -150 -67q-51 0 -147.5 37.5t-147.5 37.5q-33 0 -61.5 -28.5t-28.5 -61.5zM129 0v979h168v-131h4q100 156 287 156q346 0 346 -359v-645h-168v629q0 219 -207 219 q-117 0 -189.5 -70.5t-72.5 -187.5v-590h-168z" />
<glyph unicode="&#xf2;" horiz-adv-x="1097" d="M70 489q0 227 129 371t350 144t350 -143.5t129 -371.5q0 -227 -129 -370.5t-350 -143.5t-350 143.5t-129 370.5zM250 489q0 -152 59 -251q76 -131 240 -132q164 0 239 132q59 100 60 251q0 152 -60 252q-76 131 -239 131q-164 0 -240 -131q-59 -100 -59 -252zM537 1172 l-267 289h222l182 -289h-137z" />
<glyph unicode="&#xf3;" horiz-adv-x="1097" d="M424 1174l182 289h221l-266 -289h-137zM70 489q0 227 129 371t350 144t350 -143.5t129 -371.5q0 -227 -129 -370.5t-350 -143.5t-350 143.5t-129 370.5zM250 489q0 -152 59 -251q76 -131 240 -132q164 0 239 132q59 100 60 251q0 152 -60 252q-76 131 -239 131 q-164 0 -240 -131q-59 -100 -59 -252z" />
<glyph unicode="&#xf4;" horiz-adv-x="1097" d="M70 489q0 227 129 371t350 144t350 -143.5t129 -371.5q0 -227 -129 -370.5t-350 -143.5t-350 143.5t-129 370.5zM250 489q0 -152 59 -251q76 -131 240 -132q164 0 239 132q59 100 60 251q0 152 -60 252q-76 131 -239 131q-164 0 -240 -131q-59 -100 -59 -252zM250 1174 l203 289h188l207 -289h-166l-135 194l-135 -194h-162z" />
<glyph unicode="&#xf5;" horiz-adv-x="1097" d="M299 1190h-98q8 96 63.5 159t149.5 63q53 0 147 -38t127 -38q111 0 111 92h98q-12 -94 -63 -156q-59 -68 -150 -67q-51 0 -147.5 37.5t-147.5 37.5q-33 0 -61.5 -28.5t-28.5 -61.5zM70 489q0 227 129 371t350 144t350 -143.5t129 -371.5q0 -227 -129 -370.5t-350 -143.5 t-350 143.5t-129 370.5zM250 489q0 -152 59 -251q76 -131 240 -132q164 0 239 132q59 100 60 251q0 152 -60 252q-76 131 -239 131q-164 0 -240 -131q-59 -100 -59 -252z" />
<glyph unicode="&#xf6;" horiz-adv-x="1097" d="M70 489q0 227 129 371t350 144t350 -143.5t129 -371.5q0 -227 -129 -370.5t-350 -143.5t-350 143.5t-129 370.5zM250 489q0 -152 59 -251q76 -131 240 -132q164 0 239 132q59 100 60 251q0 152 -60 252q-76 131 -239 131q-164 0 -240 -131q-59 -100 -59 -252zM295 1196 v204h180v-204h-180zM623 1196v204h180v-204h-180z" />
<glyph unicode="&#xf7;" horiz-adv-x="1228" d="M96 446v144h1037v-144h-1037zM492 938q0 51 35.5 87t86.5 36q49 0 86 -37t37 -86q0 -47 -36.5 -85t-84.5 -38q-51 0 -87.5 36t-36.5 87zM492 98q0 51 35.5 87t86.5 36q49 0 86 -37t37 -86q0 -47 -36.5 -85t-84.5 -38q-51 0 -87.5 36t-36.5 87z" />
<glyph unicode="&#xf8;" horiz-adv-x="1097" d="M276 311l484 471q-76 90 -211 90q-154 0 -234 -118q-66 -102 -65 -265q-1 -104 26 -178zM815 688l-487 -477q74 -104 221 -105q154 0 233 119q66 102 66 264q0 111 -33 199zM63 102l87 84q-80 127 -80 303q0 225 128 370t351 145q197 0 321 -115l91 88l75 -72l-98 -96 q90 -131 90 -320q0 -225 -125 -366q-131 -147 -354 -148q-201 0 -334 127l-80 -77z" />
<glyph unicode="&#xf9;" horiz-adv-x="1062" d="M934 979v-979h-168v131h-4q-100 -156 -287 -156q-346 0 -346 359v645h168v-645q0 -203 207 -203q117 0 189.5 70.5t72.5 187.5v590h168zM521 1172l-267 289h222l182 -289h-137z" />
<glyph unicode="&#xfa;" horiz-adv-x="1062" d="M934 979v-979h-168v131h-4q-100 -156 -287 -156q-346 0 -346 359v645h168v-645q0 -203 207 -203q117 0 189.5 70.5t72.5 187.5v590h168zM412 1178l182 289h221l-266 -289h-137z" />
<glyph unicode="&#xfb;" horiz-adv-x="1062" d="M234 1172l203 289h188l207 -289h-166l-135 194l-135 -194h-162zM934 979v-979h-168v131h-4q-100 -156 -287 -156q-346 0 -346 359v645h168v-645q0 -203 207 -203q117 0 189.5 70.5t72.5 187.5v590h168z" />
<glyph unicode="&#xfc;" horiz-adv-x="1062" d="M934 979v-979h-168v131h-4q-100 -156 -287 -156q-346 0 -346 359v645h168v-645q0 -203 207 -203q117 0 189.5 70.5t72.5 187.5v590h168zM279 1201v204h180v-204h-180zM607 1201v204h180v-204h-180z" />
<glyph unicode="&#xfd;" horiz-adv-x="909" d="M340 1172l182 289h221l-266 -289h-137zM455 240l256 739h172l-424 -1194q-47 -131 -97 -188q-72 -80 -194 -80q-59 0 -141 28v146q61 -18 108 -19q109 0 158 138l67 188l-329 981h178l242 -739h4z" />
<glyph unicode="&#xfe;" d="M117 1458h168v-596h2q104 141 301 142q481 0 481 -515q0 -221 -102 -354q-123 -160 -365 -160q-205 0 -313 148h-4v-582h-168v1917zM889 489q0 160 -72 259q-80 113 -233 112q-154 0 -234 -112q-72 -98 -71 -259q0 -154 79 -258q86 -113 226 -112q154 0 233 112 q72 98 72 258z" />
<glyph unicode="&#xff;" horiz-adv-x="909" d="M201 1201v204h180v-204h-180zM529 1201v204h180v-204h-180zM455 240l256 739h172l-424 -1194q-47 -131 -97 -188q-72 -80 -194 -80q-59 0 -141 28v146q61 -18 108 -19q109 0 158 138l67 188l-329 981h178l242 -739h4z" />
<glyph unicode="&#x131;" horiz-adv-x="417" d="M125 0v979h168v-979h-168z" />
<glyph unicode="&#x152;" horiz-adv-x="2351" d="M1266 0v162q-186 -199 -480 -199q-317 0 -505 221q-180 213 -181 545q0 319 179 535q190 231 509 231q311 0 478 -180v143h1032v-168h-840v-450h676v-168h-676v-504h858v-168h-1050zM309 729q0 -250 121 -420q137 -190 379 -190q217 0 340 170q117 164 117 440 q0 262 -92 418q-117 193 -365 192q-242 0 -379 -190q-121 -170 -121 -420z" />
<glyph unicode="&#x153;" horiz-adv-x="1781" d="M1530 315l168 -24q-37 -150 -166 -236q-119 -80 -270 -80q-256 0 -371 189q-113 -188 -361 -189q-209 0 -334.5 144.5t-125.5 369.5t126 370t334 145q270 0 367 -177q127 176 342 177q244 0 365 -162q109 -145 108 -402h-733q-4 -135 80 -233q86 -104 221 -105 q197 0 250 213zM530 872q-152 0 -223 -131q-57 -100 -57 -252t57 -251q72 -131 223 -132q152 0 224 132q57 100 57 251q0 152 -57 252q-72 131 -224 131zM979 571h553q-12 123 -86 209q-80 92 -197 92q-111 0 -190.5 -94t-79.5 -207z" />
<glyph unicode="&#x178;" horiz-adv-x="1286" d="M389 1647v204h180v-204h-180zM717 1647v204h180v-204h-180zM547 0v672l-524 786h231l389 -604l389 604h232l-525 -786v-672h-192z" />
<glyph unicode="&#x2c6;" horiz-adv-x="417" d="M-90 1192l203 289h188l207 -289h-166l-135 194l-135 -194h-162z" />
<glyph unicode="&#x2da;" horiz-adv-x="417" d="M0 1366q0 86 61.5 147.5t147.5 61.5t147.5 -61.5t61.5 -147.5t-61.5 -147.5t-147.5 -61.5t-147.5 61.5t-61.5 147.5zM82 1366q0 -51 38 -89t89 -38t89 38t38 89t-38 89t-89 38t-89 -38t-38 -89z" />
<glyph unicode="&#x2dc;" horiz-adv-x="417" d="M-41 1210h-98q8 96 63.5 159t149.5 63q53 0 147 -38t127 -38q111 0 111 92h98q-12 -94 -63 -156q-59 -68 -150 -67q-51 0 -147.5 37.5t-147.5 37.5q-33 0 -61.5 -28.5t-28.5 -61.5z" />
<glyph unicode="&#x2000;" horiz-adv-x="1026" />
<glyph unicode="&#x2001;" horiz-adv-x="2052" />
<glyph unicode="&#x2002;" horiz-adv-x="1026" />
<glyph unicode="&#x2003;" horiz-adv-x="2052" />
<glyph unicode="&#x2004;" horiz-adv-x="684" />
<glyph unicode="&#x2005;" horiz-adv-x="512" />
<glyph unicode="&#x2006;" horiz-adv-x="342" />
<glyph unicode="&#x2007;" horiz-adv-x="342" />
<glyph unicode="&#x2008;" horiz-adv-x="256" />
<glyph unicode="&#x2009;" horiz-adv-x="409" />
<glyph unicode="&#x200a;" horiz-adv-x="112" />
<glyph unicode="&#x2010;" horiz-adv-x="606" d="M94 436v168h418v-168h-418z" />
<glyph unicode="&#x2011;" horiz-adv-x="606" d="M94 436v168h418v-168h-418z" />
<glyph unicode="&#x2012;" horiz-adv-x="606" d="M94 436v168h418v-168h-418z" />
<glyph unicode="&#x2013;" horiz-adv-x="1024" d="M0 442v156h1024v-156h-1024z" />
<glyph unicode="&#x2014;" horiz-adv-x="2048" d="M266 442v156h1516v-156h-1516z" />
<glyph unicode="&#x2018;" horiz-adv-x="569" d="M180 909v232q0 49 21 141q23 106 55 176h96q-49 -150 -49 -317h86v-232h-209z" />
<glyph unicode="&#x2019;" horiz-adv-x="569" d="M180 1227v231h209v-231q0 -49 -18 -140q-25 -109 -58 -178h-96q49 150 49 318h-86z" />
<glyph unicode="&#x201a;" horiz-adv-x="569" d="M180 0v231h209v-231q0 -49 -18 -141q-25 -106 -58 -176h-96q49 150 49 317h-86z" />
<glyph unicode="&#x201c;" horiz-adv-x="796" d="M451 909v232q0 49 20 141q23 106 55 176h97q-49 -150 -50 -317h86v-232h-208zM137 909v232q0 49 21 141q23 106 55 176h96q-49 -150 -49 -317h86v-232h-209z" />
<glyph unicode="&#x201d;" horiz-adv-x="796" d="M137 1227v231h209v-231q0 -156 -76 -318h-96q49 150 49 318h-86zM451 1227v231h208v-231q0 -156 -75 -318h-97q49 150 50 318h-86z" />
<glyph unicode="&#x201e;" horiz-adv-x="796" d="M137 0v231h209v-231q0 -49 -18 -141q-25 -106 -58 -176h-96q49 150 49 317h-86zM451 0v231h208v-231q0 -49 -18 -141q-25 -106 -57 -176h-97q49 150 50 317h-86z" />
<glyph unicode="&#x2022;" horiz-adv-x="1024" d="M147 729q0 152 107.5 258.5t257.5 106.5q152 0 258.5 -106.5t106.5 -258.5q0 -150 -106.5 -257t-258.5 -107q-150 0 -257.5 107t-107.5 257z" />
<glyph unicode="&#x2026;" horiz-adv-x="2048" d="M238 0v231h208v-231h-208zM920 0v231h208v-231h-208zM1602 0v231h208v-231h-208z" />
<glyph unicode="&#x202f;" horiz-adv-x="409" />
<glyph unicode="&#x2039;" horiz-adv-x="606" d="M164 610l278 240v-191l-157 -139l157 -139v-191l-278 240v180z" />
<glyph unicode="&#x203a;" horiz-adv-x="606" d="M442 610v-180l-278 -240v191l158 139l-158 139v191z" />
<glyph unicode="&#x205f;" horiz-adv-x="512" />
<glyph unicode="&#x20ac;" d="M1143 1356l-94 -170q-141 141 -293 141q-154 0 -254 -131q-82 -106 -115 -274h580l-56 -125h-538q-2 -20 -2 -64q0 -29 2 -43h510l-54 -125h-446q70 -440 389 -440q96 0 174 39q59 31 141 108v-215q-137 -92 -315 -92q-500 0 -588 600h-157l55 125h94q-2 14 -2 41 q0 43 2 66h-149l53 125h110q49 250 187 397q156 166 395 166q185 0 371 -129z" />
<glyph unicode="&#x2122;" horiz-adv-x="2027" d="M408 614v725h-265v119h660v-119h-264v-725h-131zM926 614v844h207l258 -651l258 651h206v-844h-131v725h-4l-293 -725h-73l-293 725h-4v-725h-131z" />
<glyph unicode="&#xe000;" horiz-adv-x="980" d="M0 980h980v-980h-980v980z" />
<glyph unicode="&#xfb01;" horiz-adv-x="987" d="M694 0v979h168v-979h-168zM694 1266v192h168v-192h-168zM176 0v836h-162v143h162v174q0 160 65.5 232.5t207.5 72.5q41 0 106 -12v-127q-53 8 -92 8q-119 0 -119 -137v-211h182v-143h-182v-836h-168z" />
<glyph unicode="&#xfb02;" horiz-adv-x="987" d="M694 0v1458h168v-1458h-168zM176 0v836h-162v143h162v174q0 160 65.5 232.5t207.5 72.5q41 0 106 -12v-127q-53 8 -92 8q-119 0 -119 -137v-211h182v-143h-182v-836h-168z" />
<glyph unicode="&#xfb03;" horiz-adv-x="1556" d="M1264 0v979h168v-979h-168zM1264 1266v192h168v-192h-168zM745 0v836h-162v143h162v174q0 160 65.5 232.5t207.5 72.5q41 0 106 -12v-127q-53 8 -92 8q-119 0 -119 -137v-211h182v-143h-182v-836h-168zM176 0v836h-162v143h162v174q0 160 65.5 232.5t207.5 72.5 q41 0 106 -12v-127q-53 8 -92 8q-119 0 -119 -137v-211h182v-143h-182v-836h-168z" />
<glyph unicode="&#xfb04;" horiz-adv-x="1556" d="M1264 0v1458h168v-1458h-168zM745 0v836h-162v143h162v174q0 160 65.5 232.5t207.5 72.5q41 0 106 -12v-127q-53 8 -92 8q-119 0 -119 -137v-211h182v-143h-182v-836h-168zM176 0v836h-162v143h162v174q0 160 65.5 232.5t207.5 72.5q41 0 106 -12v-127q-53 8 -92 8 q-119 0 -119 -137v-211h182v-143h-182v-836h-168z" />
</font>
</defs>
</svg>
