<?xml version="1.0" encoding="UTF-8" standalone="no"?><!DOCTYPE svg PUBLIC "-//W3C//DTD SVG 1.1//EN" "http://www.w3.org/Graphics/SVG/1.1/DTD/svg11.dtd"><svg width="100%" height="100%" viewBox="0 0 546 253" version="1.1" xmlns="http://www.w3.org/2000/svg" xmlns:xlink="http://www.w3.org/1999/xlink" xml:space="preserve" style="fill-rule:evenodd;clip-rule:evenodd;stroke-linejoin:round;stroke-miterlimit:1.41421;"><rect id="Artboard1" x="0" y="0" width="545.847" height="252.068" style="fill:none;"/><g id="Layer-1"><path d="M122.775,0l-22.464,0l-13.824,59.582c-2.592,-4.609 -7.2,-12.35 -20.16,-12.35c-17.568,-0.288 -22.752,14.078 -24.48,19.263c-1.728,5.474 -3.168,10.947 -4.608,16.709l-19.008,81.523c-1.44,6.626 -2.592,12.099 -2.592,18.725c0,5.185 0.864,8.642 1.728,10.659c2.592,7.479 9.216,11.773 17.28,11.773c7.776,0 14.688,-4.008 19.008,-10.045c0.864,-1.44 2.016,-3.745 2.592,-5.185l-2.88,12.638l22.464,0l46.944,-203.292Zm-41.472,78.595c0,5.761 -2.88,15.844 -2.88,15.844l-15.264,66.832c-2.592,11.811 -4.32,19.013 -8.928,22.758c-1.44,1.152 -3.456,1.728 -5.472,1.728c-3.168,0 -9.216,-1.152 -9.216,-9.218c0,-4.033 1.44,-11.235 3.456,-20.453l14.688,-63.087c0.864,-4.322 2.016,-8.643 3.168,-12.964c0.576,-1.44 2.016,-11.522 10.944,-11.522c6.048,0 9.504,4.033 9.504,10.082Z" style="fill:#ec4ca1;fill-rule:nonzero;"/><path d="M212.919,0l-22.464,0l-13.824,59.582c-2.592,-4.609 -7.2,-12.35 -20.16,-12.35c-17.568,-0.288 -22.752,14.078 -24.48,19.263c-1.728,5.474 -3.168,10.947 -4.608,16.709l-19.008,81.523c-1.44,6.626 -2.592,12.099 -2.592,18.725c0,5.185 0.864,8.642 1.728,10.659c2.592,7.479 9.216,11.773 17.28,11.773c7.776,0 14.688,-4.008 19.008,-10.045c0.864,-1.44 2.016,-3.745 2.592,-5.185l-2.88,12.638l22.464,0l46.944,-203.292Zm-41.472,78.595c0,5.761 -2.88,15.844 -2.88,15.844l-15.264,66.832c-2.592,11.811 -4.32,19.013 -8.928,22.758c-1.44,1.152 -3.456,1.728 -5.472,1.728c-3.168,0 -9.216,-1.152 -9.216,-9.218c0,-4.033 1.44,-11.235 3.456,-20.453l14.688,-63.087c0.864,-4.322 2.016,-8.643 3.168,-12.964c0.576,-1.44 2.016,-11.522 10.944,-11.522c6.048,0 9.504,4.033 9.504,10.082Z" style="fill:#ec4ca1;fill-rule:nonzero;"/><path d="M291.831,49.824l-66.528,0l-4.896,18.684l41.472,0l-74.304,117.825l-4.032,16.959l72.864,0l4.896,-18.684l-47.808,0l73.44,-114.947l4.896,-19.837Z" style="fill:#ec4ca1;fill-rule:nonzero;"/><path d="M376.791,49.824l-25.344,0l-42.624,120.19l13.536,-120.19l-24.192,0l-10.08,142.91c-0.576,8.629 -2.304,19.845 -2.592,21.571c-0.576,2.013 -1.44,3.739 -2.592,5.177c-2.592,2.588 -5.472,3.451 -8.64,3.451c-4.608,0 -8.64,-1.438 -9.792,-2.013l-4.896,21.264c7.488,1.718 11.808,2.004 15.552,2.004c20.448,0 27.36,-12.915 30.816,-19.817c2.304,-4.314 4.032,-8.916 5.76,-13.517l65.088,-161.03Z" style="fill:#ec4ca1;fill-rule:nonzero;"/><path d="M454.263,68.221c0,-13.226 -9.216,-20.989 -21.888,-20.989c-14.112,-0.288 -20.16,8.625 -23.328,12.938l2.016,-10.346l-23.04,0l-35.136,153.468l23.04,0l27.936,-120.667c2.016,-8.067 4.32,-14.693 13.824,-14.693c9.504,0 11.52,6.914 11.52,10.371c0,1.729 -0.288,3.745 -1.152,7.49l-27.072,117.499l23.04,0l27.072,-116.634c2.016,-9.219 3.168,-13.828 3.168,-18.437Z" style="fill:#ec4ca1;fill-rule:nonzero;"/><path d="M545.847,73.992c0,-18.731 -14.976,-26.474 -31.68,-26.76c-2.592,0 -8.064,0 -14.976,2.29c-14.112,4.586 -18.72,15.825 -22.176,29.081c-0.864,3.458 -2.016,7.205 -2.88,10.951l-17.568,73.434c-2.016,8.933 -2.592,12.391 -2.592,17.001c0,11.238 5.184,25.895 30.24,25.895c29.376,0 35.712,-18.979 39.168,-29.929c1.728,-6.051 3.168,-11.814 4.896,-17.865l2.88,-10.086l-23.328,0l-3.744,12.679c-1.152,3.458 -4.608,15.56 -6.048,18.73c-3.456,6.628 -8.352,7.492 -11.52,7.492c-8.352,0 -10.08,-5.475 -10.08,-8.933c0,-3.458 1.152,-7.78 2.88,-15.272l7.2,-30.256l46.944,0l9.504,-39.72c1.44,-5.764 2.88,-12.68 2.88,-18.732Zm-23.616,3.17c0,2.594 -0.864,7.205 -2.304,13.256l-5.184,22.19l-23.328,0l4.608,-20.46c2.592,-11.528 4.608,-19.596 8.352,-23.343c1.152,-1.441 3.456,-2.881 8.064,-2.881c6.912,0 9.792,4.61 9.792,11.238Z" style="fill:#ec4ca1;fill-rule:nonzero;"/><g transform="matrix(0.785651,0,0,0.785651,0.226268,-56.2554)"><path d="M23.472,349.029c0,-4.681 -2.664,-5.969 -4.752,-6.041c-0.432,0 -1.296,0.072 -2.304,0.573c-1.728,0.787 -2.376,2.299 -2.664,2.875l3.528,-15.256l-5.832,0l-11.736,50.823l3.24,0l2.016,-3.303c0.36,1.368 1.08,3.951 4.896,3.951c4.824,0 6.48,-3.951 7.056,-5.32c0.936,-2.376 1.656,-5.257 2.232,-7.778l3.744,-16.059c0.36,-1.585 0.576,-2.881 0.576,-4.466l0,0.001Zm-5.832,1.656c0,0.576 -0.432,3.097 -0.936,5.185l-3.384,14.548c-0.72,3.024 -1.224,5.329 -2.16,6.265c-0.216,0.216 -0.792,0.648 -1.656,0.648c-1.512,0 -2.304,-1.08 -2.304,-2.376c0,-1.08 0.648,-3.961 0.864,-4.897l3.384,-14.692c0.792,-3.313 1.08,-5.473 2.376,-6.554c0.576,-0.504 1.296,-0.576 1.584,-0.576c0.792,0 2.232,0.504 2.232,2.449Z" style="fill:#fff;fill-rule:nonzero;"/><path d="M46.728,349.678c0,-4.682 -3.744,-6.618 -7.92,-6.69c-0.648,0 -2.016,0 -3.744,0.573c-3.528,1.146 -4.68,3.956 -5.544,7.27c-0.216,0.865 -0.504,1.801 -0.72,2.738l-4.392,18.358c-0.504,2.234 -0.648,3.098 -0.648,4.251c0,2.809 1.296,6.473 7.56,6.473c7.344,0 8.928,-4.744 9.792,-7.482c0.432,-1.513 0.792,-2.953 1.224,-4.466l0.72,-2.522l-5.832,0l-0.936,3.17c-0.288,0.865 -1.152,3.89 -1.512,4.683c-0.864,1.656 -2.088,1.873 -2.88,1.873c-2.088,0 -2.52,-1.369 -2.52,-2.234c0,-0.864 0.288,-1.945 0.72,-3.818l1.8,-7.564l11.736,0l2.376,-9.93c0.36,-1.441 0.72,-3.17 0.72,-4.683Zm-5.904,0.793c0,0.648 -0.216,1.801 -0.576,3.314l-1.296,5.547l-5.832,0l1.152,-5.115c0.648,-2.882 1.152,-4.899 2.088,-5.835c0.288,-0.361 0.864,-0.721 2.016,-0.721c1.728,0 2.448,1.153 2.448,2.81Z" style="fill:#fff;fill-rule:nonzero;"/><path d="M67.968,349.679c0,-1.439 -0.504,-2.662 -0.72,-3.165c-0.936,-1.943 -2.952,-3.526 -7.344,-3.526c-0.864,0 -3.528,0 -5.544,1.871c-1.152,1.151 -1.944,2.518 -2.736,5.612c-0.72,2.734 -1.008,4.82 -1.008,5.901c0,2.52 1.08,4.105 2.736,5.906c0.864,0.936 3.672,3.601 4.248,4.753c0.576,1.009 0.576,2.161 0.576,2.521c0,1.801 -0.792,5.762 -2.088,7.131c-0.288,0.288 -1.08,0.936 -2.304,0.936c-0.864,0 -2.736,-0.504 -2.736,-2.881c0,-1.152 0.288,-2.233 0.504,-3.313l0.792,-3.529l-5.4,0c-0.936,3.745 -1.368,5.618 -1.368,7.49c0,6.764 6.12,7.265 7.992,7.265c0.72,0 4.032,-0.071 6.12,-1.935c2.232,-1.945 2.88,-5.258 3.096,-5.978c0.864,-3.313 1.152,-5.258 1.152,-6.842c0,-2.377 -0.504,-3.962 -2.088,-5.69c-0.504,-0.577 -1.08,-1.081 -1.656,-1.657c-1.584,-1.44 -3.024,-2.953 -3.384,-3.673c-0.216,-0.36 -0.576,-0.937 -0.576,-1.944c0,-1.008 0.72,-3.814 1.08,-4.749c0.648,-1.799 1.728,-2.086 2.664,-2.086c1.368,0 2.016,0.791 2.232,1.223c0.144,0.359 0.216,0.719 0.216,1.439c0,1.151 -0.36,2.446 -0.432,2.806l-0.36,1.726l5.328,0l0.432,-1.726c0.072,-0.144 0.576,-2.375 0.576,-3.886Z" style="fill:#fff;fill-rule:nonzero;"/><path d="M89.784,348.02c0,-2.953 -1.728,-5.032 -4.752,-5.032c-3.312,-0.072 -4.608,2.152 -5.184,3.232l0.576,-2.584l-5.76,0l-11.304,48.807l5.832,0l3.096,-13.383c0.576,2.589 1.944,3.591 4.608,3.591c2.592,0 4.032,-1.431 4.68,-2.295c1.8,-2.304 2.808,-7.058 2.88,-7.346c0.072,-0.432 0.216,-0.864 0.288,-1.296l4.176,-18.004c0.144,-0.505 0.864,-3.385 0.864,-5.69Zm-5.904,2.377c0,0.864 -0.288,2.304 -0.792,4.321l-3.96,17.068c-0.504,2.089 -0.936,3.817 -1.44,4.465c-0.72,1.08 -1.584,1.152 -2.088,1.152c-0.504,0 -2.376,-0.288 -2.376,-2.16c0,-1.368 0.576,-3.673 0.576,-3.673l4.104,-17.716c0.432,-1.945 0.864,-3.601 1.152,-4.321c0.432,-0.937 1.296,-1.585 2.376,-1.585c1.44,0 2.448,1.152 2.448,2.449Z" style="fill:#fff;fill-rule:nonzero;"/><path d="M113.544,349.677c-0.072,-3.169 -1.8,-6.689 -8.352,-6.689c-1.512,0 -2.736,0.215 -3.312,0.358c-1.008,0.215 -3.456,0.787 -4.824,3.378c-0.648,1.152 -1.224,3.241 -1.944,6.265l-4.248,18.725c-0.072,0.36 -0.648,2.521 -0.648,4.249c0,3.169 1.8,6.688 8.352,6.688c0.504,0 3.888,0 6.048,-1.431c1.512,-0.936 2.16,-2.376 2.376,-2.952c0.432,-1.153 1.296,-4.465 1.584,-5.618l4.32,-18.724c0.288,-1.369 0.648,-2.809 0.648,-4.249Zm-5.832,0.72c0,1.008 -0.576,3.385 -0.792,4.393l-3.888,17.5c-0.432,2.017 -0.864,3.673 -1.224,4.321c-0.792,1.441 -2.16,1.513 -2.664,1.513c-0.792,0 -3.096,-0.216 -3.096,-2.881c0,-1.008 0.576,-3.385 0.792,-4.393l3.888,-17.5c0.432,-2.017 0.72,-3.241 1.08,-4.033c0.36,-0.721 0.936,-1.801 2.808,-1.801c0.792,0 3.096,0.216 3.096,2.881Z" style="fill:#fff;fill-rule:nonzero;"/><path d="M138.812,343.636l-6.409,0l-8.055,12.738l5.679,-25.194l-5.751,0l-11.736,50.823l5.76,0l4.176,-18.139l1.368,-1.656l1.295,19.795l5.464,0l-1.438,-24.693l9.646,-13.674Z" style="fill:#fff;fill-rule:nonzero;"/><path d="M157.824,349.678c0,-4.682 -3.744,-6.618 -7.92,-6.69c-0.648,0 -2.016,0 -3.744,0.573c-3.528,1.146 -4.68,3.956 -5.544,7.27c-0.216,0.865 -0.504,1.801 -0.72,2.738l-4.392,18.358c-0.504,2.234 -0.648,3.098 -0.648,4.251c0,2.809 1.296,6.473 7.56,6.473c7.344,0 8.928,-4.744 9.792,-7.482c0.432,-1.513 0.792,-2.953 1.224,-4.466l0.72,-2.522l-5.832,0l-0.936,3.17c-0.288,0.865 -1.152,3.89 -1.512,4.683c-0.864,1.656 -2.088,1.873 -2.88,1.873c-2.088,0 -2.52,-1.369 -2.52,-2.234c0,-0.864 0.288,-1.945 0.72,-3.818l1.8,-7.564l11.736,0l2.376,-9.93c0.36,-1.441 0.72,-3.17 0.72,-4.683Zm-5.904,0.793c0,0.648 -0.216,1.801 -0.576,3.314l-1.296,5.547l-5.832,0l1.152,-5.115c0.648,-2.882 1.152,-4.899 2.088,-5.835c0.288,-0.361 0.864,-0.721 2.016,-0.721c1.728,0 2.448,1.153 2.448,2.81Z" style="fill:#fff;fill-rule:nonzero;"/><path d="M203.112,343.636l-5.688,0l-9.432,30.311l3.744,-30.311l-4.176,0l-10.872,30.311l5.04,-30.311l-5.616,0l-4.824,38.367l6.696,0l8.424,-24.333l-3.528,24.333l6.984,0l13.248,-38.367Z" style="fill:#fff;fill-rule:nonzero;"/><path d="M222.336,349.678c0,-4.682 -3.744,-6.618 -7.92,-6.69c-0.648,0 -2.016,0 -3.744,0.573c-3.528,1.146 -4.68,3.956 -5.544,7.27c-0.216,0.865 -0.504,1.801 -0.72,2.738l-4.392,18.358c-0.504,2.234 -0.648,3.098 -0.648,4.251c0,2.809 1.296,6.473 7.56,6.473c7.344,0 8.928,-4.744 9.792,-7.482c0.432,-1.513 0.792,-2.953 1.224,-4.466l0.72,-2.522l-5.832,0l-0.936,3.17c-0.288,0.865 -1.152,3.89 -1.512,4.683c-0.864,1.656 -2.088,1.873 -2.88,1.873c-2.088,0 -2.52,-1.369 -2.52,-2.234c0,-0.864 0.288,-1.945 0.72,-3.818l1.8,-7.564l11.736,0l2.376,-9.93c0.36,-1.441 0.72,-3.17 0.72,-4.683Zm-5.904,0.793c0,0.648 -0.216,1.801 -0.576,3.314l-1.296,5.547l-5.832,0l1.152,-5.115c0.648,-2.882 1.152,-4.899 2.088,-5.835c0.288,-0.361 0.864,-0.721 2.016,-0.721c1.728,0 2.448,1.153 2.448,2.81Z" style="fill:#fff;fill-rule:nonzero;"/><path d="M244.152,349.029c0,-4.681 -2.664,-5.969 -4.752,-6.041c-0.432,0 -1.296,0.072 -2.304,0.573c-1.728,0.787 -2.376,2.299 -2.664,2.875l3.528,-15.256l-5.832,0l-11.736,50.823l3.24,0l2.016,-3.303c0.36,1.368 1.08,3.951 4.896,3.951c4.824,0 6.48,-3.951 7.056,-5.32c0.936,-2.376 1.656,-5.257 2.232,-7.778l3.744,-16.059c0.36,-1.585 0.576,-2.881 0.576,-4.466l0,0.001Zm-5.832,1.656c0,0.576 -0.432,3.097 -0.936,5.185l-3.384,14.548c-0.72,3.024 -1.224,5.329 -2.16,6.265c-0.216,0.216 -0.792,0.648 -1.656,0.648c-1.512,0 -2.304,-1.08 -2.304,-2.376c0,-1.08 0.648,-3.961 0.864,-4.897l3.384,-14.692c0.792,-3.313 1.08,-5.473 2.376,-6.554c0.576,-0.504 1.296,-0.576 1.584,-0.576c0.792,0 2.232,0.504 2.232,2.449Z" style="fill:#fff;fill-rule:nonzero;"/><path d="M271.224,331.18l-5.616,0l-3.456,14.896c-0.648,-1.153 -1.8,-3.088 -5.04,-3.088c-4.392,-0.072 -5.688,3.52 -6.12,4.816c-0.432,1.368 -0.792,2.737 -1.152,4.177l-4.752,20.381c-0.36,1.657 -0.648,3.025 -0.648,4.681c0,1.297 0.216,2.161 0.432,2.665c0.648,1.87 2.304,2.943 4.32,2.943c1.944,0 3.672,-1.002 4.752,-2.511c0.216,-0.36 0.504,-0.936 0.648,-1.296l-0.72,3.159l5.616,0l11.736,-50.823Zm-10.368,19.649c0,1.44 -0.72,3.961 -0.72,3.961l-3.816,16.708c-0.648,2.953 -1.08,4.753 -2.232,5.689c-0.36,0.289 -0.864,0.433 -1.368,0.433c-0.792,0 -2.304,-0.288 -2.304,-2.305c0,-1.008 0.36,-2.809 0.864,-5.113l3.672,-15.772c0.216,-1.08 0.504,-2.161 0.792,-3.241c0.144,-0.36 0.504,-2.881 2.736,-2.881c1.512,0 2.376,1.009 2.376,2.521Z" style="fill:#fff;fill-rule:nonzero;"/><path d="M289.944,349.678c0,-4.682 -3.744,-6.618 -7.92,-6.69c-0.648,0 -2.016,0 -3.744,0.573c-3.528,1.146 -4.68,3.956 -5.544,7.27c-0.216,0.865 -0.504,1.801 -0.72,2.738l-4.392,18.358c-0.504,2.234 -0.648,3.098 -0.648,4.251c0,2.809 1.296,6.473 7.56,6.473c7.344,0 8.928,-4.744 9.792,-7.482c0.432,-1.513 0.792,-2.953 1.224,-4.466l0.72,-2.522l-5.832,0l-0.936,3.17c-0.288,0.865 -1.152,3.89 -1.512,4.683c-0.864,1.656 -2.088,1.873 -2.88,1.873c-2.088,0 -2.52,-1.369 -2.52,-2.234c0,-0.864 0.288,-1.945 0.72,-3.818l1.8,-7.564l11.736,0l2.376,-9.93c0.36,-1.441 0.72,-3.17 0.72,-4.683Zm-5.904,0.793c0,0.648 -0.216,1.801 -0.576,3.314l-1.296,5.547l-5.832,0l1.152,-5.115c0.648,-2.882 1.152,-4.899 2.088,-5.835c0.288,-0.361 0.864,-0.721 2.016,-0.721c1.728,0 2.448,1.153 2.448,2.81Z" style="fill:#fff;fill-rule:nonzero;"/><path d="M311.976,343.636l-5.616,0l-10.728,30.887l3.816,-30.887l-5.328,0l-3.888,38.367l7.272,0l14.472,-38.367Z" style="fill:#fff;fill-rule:nonzero;"/><path d="M330.48,349.678c0,-4.682 -3.744,-6.618 -7.92,-6.69c-0.648,0 -2.016,0 -3.744,0.573c-3.528,1.146 -4.68,3.956 -5.544,7.27c-0.216,0.865 -0.504,1.801 -0.72,2.738l-4.392,18.358c-0.504,2.234 -0.648,3.098 -0.648,4.251c0,2.809 1.296,6.473 7.56,6.473c7.344,0 8.928,-4.744 9.792,-7.482c0.432,-1.513 0.792,-2.953 1.224,-4.466l0.72,-2.522l-5.832,0l-0.936,3.17c-0.288,0.865 -1.152,3.89 -1.512,4.683c-0.864,1.656 -2.088,1.873 -2.88,1.873c-2.088,0 -2.52,-1.369 -2.52,-2.234c0,-0.864 0.288,-1.945 0.72,-3.818l1.8,-7.564l11.736,0l2.376,-9.93c0.36,-1.441 0.72,-3.17 0.72,-4.683Zm-5.904,0.793c0,0.648 -0.216,1.801 -0.576,3.314l-1.296,5.547l-5.832,0l1.152,-5.115c0.648,-2.882 1.152,-4.899 2.088,-5.835c0.288,-0.361 0.864,-0.721 2.016,-0.721c1.728,0 2.448,1.153 2.448,2.81Z" style="fill:#fff;fill-rule:nonzero;"/><path d="M345.816,331.18l-5.832,0l-11.376,50.823l5.904,0l11.304,-50.823Z" style="fill:#fff;fill-rule:nonzero;"/><path d="M365.76,349.677c-0.072,-3.169 -1.8,-6.689 -8.352,-6.689c-1.512,0 -2.736,0.215 -3.312,0.358c-1.008,0.215 -3.456,0.787 -4.824,3.378c-0.648,1.152 -1.224,3.241 -1.944,6.265l-4.248,18.725c-0.072,0.36 -0.648,2.521 -0.648,4.249c0,3.169 1.8,6.688 8.352,6.688c0.504,0 3.888,0 6.048,-1.431c1.512,-0.936 2.16,-2.376 2.376,-2.952c0.432,-1.153 1.296,-4.465 1.584,-5.618l4.32,-18.724c0.288,-1.369 0.648,-2.809 0.648,-4.249Zm-5.832,0.72c0,1.008 -0.576,3.385 -0.792,4.393l-3.888,17.5c-0.432,2.017 -0.864,3.673 -1.224,4.321c-0.792,1.441 -2.16,1.513 -2.664,1.513c-0.792,0 -3.096,-0.216 -3.096,-2.881c0,-1.008 0.576,-3.385 0.792,-4.393l3.888,-17.5c0.432,-2.017 0.72,-3.241 1.08,-4.033c0.36,-0.721 0.936,-1.801 2.808,-1.801c0.792,0 3.096,0.216 3.096,2.881Z" style="fill:#fff;fill-rule:nonzero;"/><path d="M388.512,348.02c0,-2.953 -1.728,-5.032 -4.752,-5.032c-3.312,-0.072 -4.608,2.152 -5.184,3.232l0.576,-2.584l-5.76,0l-11.304,48.807l5.832,0l3.096,-13.383c0.576,2.589 1.944,3.591 4.608,3.591c2.592,0 4.032,-1.431 4.68,-2.295c1.8,-2.304 2.808,-7.058 2.88,-7.346c0.072,-0.432 0.216,-0.864 0.288,-1.296l4.176,-18.004c0.144,-0.505 0.864,-3.385 0.864,-5.69Zm-5.904,2.377c0,0.864 -0.288,2.304 -0.792,4.321l-3.96,17.068c-0.504,2.089 -0.936,3.817 -1.44,4.465c-0.72,1.08 -1.584,1.152 -2.088,1.152c-0.504,0 -2.376,-0.288 -2.376,-2.16c0,-1.368 0.576,-3.673 0.576,-3.673l4.104,-17.716c0.432,-1.945 0.864,-3.601 1.152,-4.321c0.432,-0.937 1.296,-1.585 2.376,-1.585c1.44,0 2.448,1.152 2.448,2.449Z" style="fill:#fff;fill-rule:nonzero;"/><path d="M424.512,348.307c0,-1.437 -0.288,-2.228 -0.648,-2.803c-1.296,-2.228 -4.104,-2.372 -4.752,-2.372c-3.96,0 -5.832,2.731 -6.48,3.81c-0.432,-1.582 -1.512,-3.81 -5.4,-3.81c-3.96,0 -5.472,2.516 -6.192,3.81l0.792,-3.306l-5.76,0l-8.856,38.367l5.76,0l6.696,-28.942c0.504,-2.089 1.296,-4.754 3.96,-4.826c1.656,0 2.088,0.865 2.304,1.441c0.144,0.288 0.288,0.72 0.288,1.44c0,0.648 -0.288,1.513 -0.288,1.657l-6.696,29.23l5.832,0l6.84,-29.806c0.504,-2.233 1.08,-2.953 2.232,-3.529c0.216,-0.072 0.792,-0.361 1.44,-0.361c0.936,0 2.016,0.433 2.376,1.297c0.144,0.216 0.288,0.72 0.288,1.44c0,1.153 -0.36,2.377 -0.432,2.665l-6.48,28.294l5.76,0l6.912,-29.806c0.432,-1.945 0.504,-2.953 0.504,-3.89Z" style="fill:#fff;fill-rule:nonzero;"/><path d="M447.552,349.678c0,-4.682 -3.744,-6.618 -7.92,-6.69c-0.648,0 -2.016,0 -3.744,0.573c-3.528,1.146 -4.68,3.956 -5.544,7.27c-0.216,0.865 -0.504,1.801 -0.72,2.738l-4.392,18.358c-0.504,2.234 -0.648,3.098 -0.648,4.251c0,2.809 1.296,6.473 7.56,6.473c7.344,0 8.928,-4.744 9.792,-7.482c0.432,-1.513 0.792,-2.953 1.224,-4.466l0.72,-2.522l-5.832,0l-0.936,3.17c-0.288,0.865 -1.152,3.89 -1.512,4.683c-0.864,1.656 -2.088,1.873 -2.88,1.873c-2.088,0 -2.52,-1.369 -2.52,-2.234c0,-0.864 0.288,-1.945 0.72,-3.818l1.8,-7.564l11.736,0l2.376,-9.93c0.36,-1.441 0.72,-3.17 0.72,-4.683Zm-5.904,0.793c0,0.648 -0.216,1.801 -0.576,3.314l-1.296,5.547l-5.832,0l1.152,-5.115c0.648,-2.882 1.152,-4.899 2.088,-5.835c0.288,-0.361 0.864,-0.721 2.016,-0.721c1.728,0 2.448,1.153 2.448,2.81Z" style="fill:#fff;fill-rule:nonzero;"/><path d="M471.168,348.235c0,-3.306 -2.304,-5.247 -5.472,-5.247c-3.528,-0.072 -5.04,2.157 -5.832,3.235l0.504,-2.587l-5.76,0l-8.784,38.367l5.76,0l6.984,-30.167c0.504,-2.016 1.08,-3.673 3.456,-3.673c2.376,0 2.88,1.729 2.88,2.593c0,0.432 -0.072,0.936 -0.288,1.873l-6.768,29.374l5.76,0l6.768,-29.158c0.504,-2.305 0.792,-3.457 0.792,-4.61Z" style="fill:#fff;fill-rule:nonzero;"/><path d="M488.304,343.636l-3.672,0l2.088,-8.136l-6.552,2.657l-1.368,5.479l-3.24,0l-1.224,4.671l3.24,0l-6.768,28.016c-0.216,0.864 -0.216,1.512 -0.216,1.872c0,1.801 0.792,3.383 2.52,4.098c0.72,0.215 1.44,0.358 2.232,0.358c1.944,0 3.384,-0.644 4.104,-0.93l1.296,-4.894c-0.576,0.36 -1.656,0.936 -2.448,0.936c-0.432,0 -1.512,-0.216 -1.512,-1.512c0,-0.36 0.072,-0.72 0.216,-1.368l6.48,-26.576l3.672,0l1.152,-4.671Z" style="fill:#fff;fill-rule:nonzero;"/><path d="M518.072,361.832l-4.572,0c-1.258,5.602 -1.944,7.26 -3.487,10.004c-0.628,-1.315 -2.457,-5.374 -3.315,-9.833c3.487,-3.43 4.687,-4.573 6.23,-6.688c2.115,-2.916 2.572,-5.203 2.572,-6.803c0,-3.373 -2.229,-6.224 -5.773,-6.224c-2.057,0 -3.658,1.022 -4.229,1.422c-1.997,1.429 -4.737,4.744 -4.737,10.747c0,2.058 0.4,4.345 0.799,6.346c-2.749,2.572 -5.26,5.031 -6.458,8.632c-0.685,1.944 -0.742,3.43 -0.742,4.231c0,2.972 1.027,5.086 1.655,6.056c1.37,1.998 3.367,2.797 5.716,2.797c3.196,0 5.024,-0.971 7.482,-2.854c0.629,0.571 2.229,2.169 4.801,2.568c0.572,0.114 0.743,0.114 1.658,0.171l1.029,-4.679c-0.972,-0.172 -2.23,-0.629 -3.887,-2.058c0.571,-0.858 1.086,-1.544 1.543,-2.459c2.401,-4.459 3.487,-10.061 3.715,-11.376Zm-7.316,-13.435c0,0.801 -0.343,1.944 -1.2,3.545c-1.315,2.401 -3.201,4.459 -3.715,5.031c-0.114,-1.029 -0.172,-2.116 -0.172,-3.202c0,-3.373 0.801,-5.602 1.887,-6.689c0.628,-0.571 1.143,-0.743 1.486,-0.743c1.257,0 1.714,0.972 1.714,2.058Zm-4.058,27.784c-1.143,0.8 -2.341,1.544 -3.825,1.544c-2.342,0 -3.146,-2.23 -3.318,-2.802c-0.173,-0.686 -0.173,-1.486 -0.173,-1.715c0,-2.915 1.436,-5.088 1.95,-5.831c0.456,-0.629 0.799,-1.029 1.37,-1.601c0.285,1.144 1.141,4.86 2.853,8.347c0.343,0.686 0.743,1.372 1.143,2.058Z" style="fill:#fff;fill-rule:nonzero;"/><path d="M557.458,331.18l-5.616,0l-3.456,14.896c-0.648,-1.153 -1.8,-3.088 -5.04,-3.088c-4.392,-0.072 -5.688,3.52 -6.12,4.816c-0.432,1.368 -0.792,2.737 -1.152,4.177l-4.752,20.381c-0.36,1.657 -0.648,3.025 -0.648,4.681c0,1.297 0.216,2.161 0.432,2.665c0.648,1.87 2.304,2.943 4.32,2.943c1.944,0 3.672,-1.002 4.752,-2.511c0.216,-0.36 0.504,-0.936 0.648,-1.296l-0.72,3.159l5.616,0l11.736,-50.823Zm-10.368,19.649c0,1.44 -0.72,3.961 -0.72,3.961l-3.816,16.708c-0.648,2.953 -1.08,4.753 -2.232,5.689c-0.36,0.289 -0.864,0.433 -1.368,0.433c-0.792,0 -2.304,-0.288 -2.304,-2.305c0,-1.008 0.36,-2.809 0.864,-5.113l3.672,-15.772c0.216,-1.08 0.504,-2.161 0.792,-3.241c0.144,-0.36 0.504,-2.881 2.736,-2.881c1.512,0 2.376,1.009 2.376,2.521Z" style="fill:#fff;fill-rule:nonzero;"/><path d="M576.178,349.678c0,-4.682 -3.744,-6.618 -7.92,-6.69c-0.648,0 -2.016,0 -3.744,0.573c-3.528,1.146 -4.68,3.956 -5.544,7.27c-0.216,0.865 -0.504,1.801 -0.72,2.738l-4.392,18.358c-0.504,2.234 -0.648,3.098 -0.648,4.251c0,2.809 1.296,6.473 7.56,6.473c7.344,0 8.928,-4.744 9.792,-7.482c0.432,-1.513 0.792,-2.953 1.224,-4.466l0.72,-2.522l-5.832,0l-0.936,3.17c-0.288,0.865 -1.152,3.89 -1.512,4.683c-0.864,1.656 -2.088,1.873 -2.88,1.873c-2.088,0 -2.52,-1.369 -2.52,-2.234c0,-0.864 0.288,-1.945 0.72,-3.818l1.8,-7.564l11.736,0l2.376,-9.93c0.36,-1.441 0.72,-3.17 0.72,-4.683Zm-5.904,0.793c0,0.648 -0.216,1.801 -0.576,3.314l-1.296,5.547l-5.832,0l1.152,-5.115c0.648,-2.882 1.152,-4.899 2.088,-5.835c0.288,-0.361 0.864,-0.721 2.016,-0.721c1.728,0 2.448,1.153 2.448,2.81Z" style="fill:#fff;fill-rule:nonzero;"/><path d="M597.418,349.679c0,-1.439 -0.504,-2.662 -0.72,-3.165c-0.936,-1.943 -2.952,-3.526 -7.344,-3.526c-0.864,0 -3.528,0 -5.544,1.871c-1.152,1.151 -1.944,2.518 -2.736,5.612c-0.72,2.734 -1.008,4.82 -1.008,5.901c0,2.52 1.08,4.105 2.736,5.906c0.864,0.936 3.672,3.601 4.248,4.753c0.576,1.009 0.576,2.161 0.576,2.521c0,1.801 -0.792,5.762 -2.088,7.131c-0.288,0.288 -1.08,0.936 -2.304,0.936c-0.864,0 -2.736,-0.504 -2.736,-2.881c0,-1.152 0.288,-2.233 0.504,-3.313l0.792,-3.529l-5.4,0c-0.936,3.745 -1.368,5.618 -1.368,7.49c0,6.764 6.12,7.265 7.992,7.265c0.72,0 4.032,-0.071 6.12,-1.935c2.232,-1.945 2.88,-5.258 3.096,-5.978c0.864,-3.313 1.152,-5.258 1.152,-6.842c0,-2.377 -0.504,-3.962 -2.088,-5.69c-0.504,-0.577 -1.08,-1.081 -1.656,-1.657c-1.584,-1.44 -3.024,-2.953 -3.384,-3.673c-0.216,-0.36 -0.576,-0.937 -0.576,-1.944c0,-1.008 0.72,-3.814 1.08,-4.749c0.648,-1.799 1.728,-2.086 2.664,-2.086c1.368,0 2.016,0.791 2.232,1.223c0.144,0.359 0.216,0.719 0.216,1.439c0,1.151 -0.36,2.446 -0.432,2.806l-0.36,1.726l5.328,0l0.432,-1.726c0.072,-0.144 0.576,-2.375 0.576,-3.886Z" style="fill:#fff;fill-rule:nonzero;"/><path d="M612.898,331.18l-5.76,0l-1.728,7.623l5.76,0l1.728,-7.623Zm-2.736,12.456l-5.832,0l-8.856,38.367l5.76,0l8.928,-38.367Z" style="fill:#fff;fill-rule:nonzero;"/><path d="M632.626,343.636l-5.76,0l-0.648,3.016c-0.432,-1.008 -1.656,-3.592 -5.184,-3.664c-0.864,0 -2.448,0.143 -3.816,1.791c-1.512,1.801 -2.304,4.538 -3.528,9.363l-3.024,12.099c-0.936,3.673 -1.224,5.617 -1.224,7.418c0,4.393 3.024,5.473 4.752,5.545c0.72,0 2.664,-0.288 4.176,-1.801c0.288,-0.288 0.648,-0.648 1.08,-1.368l-1.656,7.114c-0.576,2.43 -0.936,3.573 -2.232,4.288c-0.432,0.214 -0.936,0.286 -1.08,0.286c-1.296,0 -2.088,-1.001 -2.088,-2.215c0,-0.715 0.216,-1.715 0.504,-3.145l-5.544,0c-0.072,0.358 -0.576,2.216 -0.576,3.859c-0.072,5.576 5.544,6.005 6.912,6.005c1.728,0 3.096,-0.429 3.672,-0.644c3.96,-1.502 5.328,-4.646 6.984,-11.875l8.28,-36.072Zm-7.632,7.481c0,1.008 -0.432,2.593 -0.936,4.825l-2.592,11.307c-0.216,1.008 -1.008,4.033 -1.44,4.897c-0.432,1.008 -0.936,1.369 -1.368,1.585c-0.36,0.144 -0.792,0.144 -0.864,0.144c-0.72,0 -2.376,-0.36 -2.376,-2.449c0,-0.648 0.432,-2.737 0.864,-4.753l2.736,-11.883c0.504,-2.089 1.008,-4.033 1.296,-4.681c0.432,-0.936 1.224,-1.801 2.376,-1.801c1.08,0 1.872,0.793 2.16,1.801c0.072,0.36 0.144,0.936 0.144,1.008Z" style="fill:#fff;fill-rule:nonzero;"/><path d="M655.378,348.235c0,-3.306 -2.304,-5.247 -5.472,-5.247c-3.528,-0.072 -5.04,2.157 -5.832,3.235l0.504,-2.587l-5.76,0l-8.784,38.367l5.76,0l6.984,-30.167c0.504,-2.016 1.08,-3.673 3.456,-3.673c2.376,0 2.88,1.729 2.88,2.593c0,0.432 -0.072,0.936 -0.288,1.873l-6.768,29.374l5.76,0l6.768,-29.158c0.504,-2.305 0.792,-3.457 0.792,-4.61Z" style="fill:#fff;fill-rule:nonzero;"/></g></g></svg>