<?xml version="1.0" encoding="UTF-8" standalone="no"?><!DOCTYPE svg PUBLIC "-//W3C//DTD SVG 1.1//EN" "http://www.w3.org/Graphics/SVG/1.1/DTD/svg11.dtd"><svg width="100%" height="100%" viewBox="0 0 546 257" version="1.1" xmlns="http://www.w3.org/2000/svg" xmlns:xlink="http://www.w3.org/1999/xlink" xml:space="preserve" xmlns:serif="http://www.serif.com/" style="fill-rule:evenodd;clip-rule:evenodd;stroke-linejoin:round;stroke-miterlimit:1.41421;"><g id="Layer-1"><path d="M122.775,0l-22.464,0l-13.824,59.582c-2.592,-4.609 -7.2,-12.35 -20.16,-12.35c-17.568,-0.288 -22.752,14.078 -24.48,19.263c-1.728,5.474 -3.168,10.947 -4.608,16.709l-19.008,81.523c-1.44,6.626 -2.592,12.099 -2.592,18.725c0,5.185 0.864,8.642 1.728,10.659c2.592,7.479 9.216,11.773 17.28,11.773c7.776,0 14.688,-4.008 19.008,-10.045c0.864,-1.44 2.016,-3.745 2.592,-5.185l-2.88,12.638l22.464,0l46.944,-203.292Zm-41.472,78.595c0,5.761 -2.88,15.844 -2.88,15.844l-15.264,66.832c-2.592,11.811 -4.32,19.013 -8.928,22.758c-1.44,1.152 -3.456,1.728 -5.472,1.728c-3.168,0 -9.216,-1.152 -9.216,-9.218c0,-4.033 1.44,-11.235 3.456,-20.453l14.688,-63.087c0.864,-4.322 2.016,-8.643 3.168,-12.964c0.576,-1.44 2.016,-11.522 10.944,-11.522c6.048,0 9.504,4.033 9.504,10.082Z" style="fill:#ec4ca1;fill-rule:nonzero;"/><path d="M212.919,0l-22.464,0l-13.824,59.582c-2.592,-4.609 -7.2,-12.35 -20.16,-12.35c-17.568,-0.288 -22.752,14.078 -24.48,19.263c-1.728,5.474 -3.168,10.947 -4.608,16.709l-19.008,81.523c-1.44,6.626 -2.592,12.099 -2.592,18.725c0,5.185 0.864,8.642 1.728,10.659c2.592,7.479 9.216,11.773 17.28,11.773c7.776,0 14.688,-4.008 19.008,-10.045c0.864,-1.44 2.016,-3.745 2.592,-5.185l-2.88,12.638l22.464,0l46.944,-203.292Zm-41.472,78.595c0,5.761 -2.88,15.844 -2.88,15.844l-15.264,66.832c-2.592,11.811 -4.32,19.013 -8.928,22.758c-1.44,1.152 -3.456,1.728 -5.472,1.728c-3.168,0 -9.216,-1.152 -9.216,-9.218c0,-4.033 1.44,-11.235 3.456,-20.453l14.688,-63.087c0.864,-4.322 2.016,-8.643 3.168,-12.964c0.576,-1.44 2.016,-11.522 10.944,-11.522c6.048,0 9.504,4.033 9.504,10.082Z" style="fill:#ec4ca1;fill-rule:nonzero;"/><path d="M291.831,49.824l-66.528,0l-4.896,18.684l41.472,0l-74.304,117.825l-4.032,16.959l72.864,0l4.896,-18.684l-47.808,0l73.44,-114.947l4.896,-19.837Z" style="fill:#ec4ca1;fill-rule:nonzero;"/><path d="M376.791,49.824l-25.344,0l-42.624,120.19l13.536,-120.19l-24.192,0l-10.08,142.91c-0.576,8.629 -2.304,19.845 -2.592,21.571c-0.576,2.013 -1.44,3.739 -2.592,5.177c-2.592,2.588 -5.472,3.451 -8.64,3.451c-4.608,0 -8.64,-1.438 -9.792,-2.013l-4.896,21.264c7.488,1.718 11.808,2.004 15.552,2.004c20.448,0 27.36,-12.915 30.816,-19.817c2.304,-4.314 4.032,-8.916 5.76,-13.517l65.088,-161.03Z" style="fill:#ec4ca1;fill-rule:nonzero;"/><path d="M454.263,68.221c0,-13.226 -9.216,-20.989 -21.888,-20.989c-14.112,-0.288 -20.16,8.625 -23.328,12.938l2.016,-10.346l-23.04,0l-35.136,153.468l23.04,0l27.936,-120.667c2.016,-8.067 4.32,-14.693 13.824,-14.693c9.504,0 11.52,6.914 11.52,10.371c0,1.729 -0.288,3.745 -1.152,7.49l-27.072,117.499l23.04,0l27.072,-116.634c2.016,-9.219 3.168,-13.828 3.168,-18.437Z" style="fill:#ec4ca1;fill-rule:nonzero;"/><path d="M545.847,73.992c0,-18.731 -14.976,-26.474 -31.68,-26.76c-2.592,0 -8.064,0 -14.976,2.29c-14.112,4.586 -18.72,15.825 -22.176,29.081c-0.864,3.458 -2.016,7.205 -2.88,10.951l-17.568,73.434c-2.016,8.933 -2.592,12.391 -2.592,17.001c0,11.238 5.184,25.895 30.24,25.895c29.376,0 35.712,-18.979 39.168,-29.929c1.728,-6.051 3.168,-11.814 4.896,-17.865l2.88,-10.086l-23.328,0l-3.744,12.679c-1.152,3.458 -4.608,15.56 -6.048,18.73c-3.456,6.628 -8.352,7.492 -11.52,7.492c-8.352,0 -10.08,-5.475 -10.08,-8.933c0,-3.458 1.152,-7.78 2.88,-15.272l7.2,-30.256l46.944,0l9.504,-39.72c1.44,-5.764 2.88,-12.68 2.88,-18.732Zm-23.616,3.17c0,2.594 -0.864,7.205 -2.304,13.256l-5.184,22.19l-23.328,0l4.608,-20.46c2.592,-11.528 4.608,-19.596 8.352,-23.343c1.152,-1.441 3.456,-2.881 8.064,-2.881c6.912,0 9.792,4.61 9.792,11.238Z" style="fill:#ec4ca1;fill-rule:nonzero;"/><g><path d="M38.497,203.559l-6.009,0l-9.965,32.021l3.956,-32.021l-4.412,0l-11.485,32.021l5.324,-32.021l-5.933,0l-5.096,40.532l7.074,0l8.899,-25.706l-3.727,25.706l7.378,0l13.996,-40.532Z" style="fill:#fff;fill-rule:nonzero;"/><path d="M58.806,209.942c0,-4.946 -3.956,-6.992 -8.367,-7.068c-0.685,0 -2.13,0 -3.956,0.606c-3.727,1.21 -4.944,4.179 -5.857,7.68c-0.228,0.914 -0.532,1.903 -0.76,2.892l-4.64,19.394c-0.532,2.361 -0.685,3.273 -0.685,4.491c0,2.968 1.37,6.839 7.987,6.839c7.758,0 9.432,-5.012 10.345,-7.905c0.456,-1.598 0.836,-3.119 1.293,-4.718l0.76,-2.664l-6.161,0l-0.989,3.349c-0.304,0.914 -1.217,4.109 -1.597,4.947c-0.913,1.75 -2.206,1.979 -3.042,1.979c-2.206,0 -2.663,-1.446 -2.663,-2.36c0,-0.913 0.305,-2.055 0.761,-4.034l1.902,-7.99l12.398,0l2.51,-10.491c0.38,-1.522 0.761,-3.349 0.761,-4.947Zm-6.238,0.838c0,0.684 -0.228,1.902 -0.608,3.501l-1.369,5.86l-6.161,0l1.217,-5.404c0.684,-3.045 1.217,-5.175 2.205,-6.164c0.305,-0.382 0.913,-0.762 2.13,-0.762c1.826,0 2.586,1.218 2.586,2.969Z" style="fill:#fff;fill-rule:nonzero;"/><path d="M81.853,209.256c0,-4.945 -2.815,-6.306 -5.02,-6.382c-0.457,0 -1.37,0.076 -2.434,0.606c-1.826,0.831 -2.511,2.428 -2.815,3.037l3.727,-16.117l-6.161,0l-12.398,53.691l3.423,0l2.129,-3.489c0.381,1.445 1.141,4.174 5.173,4.174c5.096,0 6.845,-4.174 7.454,-5.621c0.989,-2.51 1.749,-5.553 2.358,-8.217l3.955,-16.965c0.381,-1.674 0.609,-3.043 0.609,-4.718l0,0.001Zm-6.161,1.75c0,0.608 -0.457,3.271 -0.989,5.477l-3.575,15.369c-0.761,3.195 -1.293,5.63 -2.282,6.619c-0.228,0.228 -0.837,0.684 -1.75,0.684c-1.597,0 -2.434,-1.141 -2.434,-2.51c0,-1.141 0.685,-4.184 0.913,-5.173l3.575,-15.521c0.837,-3.5 1.141,-5.782 2.51,-6.924c0.609,-0.532 1.369,-0.608 1.674,-0.608c0.836,0 2.358,0.532 2.358,2.587Z" style="fill:#fff;fill-rule:nonzero;"/><path d="M110.452,190.4l-5.932,0l-3.652,15.737c-0.684,-1.218 -1.901,-3.263 -5.324,-3.263c-4.64,-0.076 -6.009,3.719 -6.465,5.088c-0.457,1.445 -0.837,2.892 -1.217,4.413l-5.02,21.531c-0.381,1.751 -0.685,3.196 -0.685,4.945c0,1.37 0.228,2.283 0.456,2.816c0.685,1.975 2.434,3.109 4.564,3.109c2.054,0 3.879,-1.059 5.02,-2.653c0.228,-0.38 0.533,-0.989 0.685,-1.369l-0.761,3.337l5.933,0l12.398,-53.691Zm-10.953,20.758c0,1.521 -0.76,4.184 -0.76,4.184l-4.032,17.651c-0.684,3.12 -1.141,5.021 -2.358,6.01c-0.38,0.306 -0.912,0.458 -1.445,0.458c-0.836,0 -2.434,-0.305 -2.434,-2.435c0,-1.065 0.381,-2.968 0.913,-5.402l3.879,-16.662c0.228,-1.141 0.533,-2.283 0.837,-3.424c0.152,-0.38 0.532,-3.043 2.89,-3.043c1.598,0 2.51,1.066 2.51,2.663Z" style="fill:#fff;fill-rule:nonzero;"/><path d="M130.229,209.942c0,-4.946 -3.955,-6.992 -8.367,-7.068c-0.685,0 -2.13,0 -3.955,0.606c-3.727,1.21 -4.944,4.179 -5.857,7.68c-0.228,0.914 -0.533,1.903 -0.761,2.892l-4.64,19.394c-0.532,2.361 -0.684,3.273 -0.684,4.491c0,2.968 1.369,6.839 7.986,6.839c7.759,0 9.432,-5.012 10.345,-7.905c0.456,-1.598 0.837,-3.119 1.293,-4.718l0.761,-2.664l-6.161,0l-0.989,3.349c-0.305,0.914 -1.217,4.109 -1.598,4.947c-0.912,1.75 -2.205,1.979 -3.042,1.979c-2.206,0 -2.662,-1.446 -2.662,-2.36c0,-0.913 0.304,-2.055 0.76,-4.034l1.902,-7.99l12.398,0l2.51,-10.491c0.381,-1.522 0.761,-3.349 0.761,-4.947Zm-6.237,0.838c0,0.684 -0.229,1.902 -0.609,3.501l-1.369,5.86l-6.161,0l1.217,-5.404c0.685,-3.045 1.217,-5.175 2.206,-6.164c0.304,-0.382 0.913,-0.762 2.13,-0.762c1.825,0 2.586,1.218 2.586,2.969Z" style="fill:#fff;fill-rule:nonzero;"/><path d="M153.504,203.559l-5.933,0l-11.333,32.63l4.031,-32.63l-5.628,0l-4.108,40.532l7.682,0l15.289,-40.532Z" style="fill:#fff;fill-rule:nonzero;"/><path d="M173.052,209.942c0,-4.946 -3.955,-6.992 -8.367,-7.068c-0.684,0 -2.129,0 -3.955,0.606c-3.727,1.21 -4.944,4.179 -5.857,7.68c-0.228,0.914 -0.532,1.903 -0.76,2.892l-4.64,19.394c-0.533,2.361 -0.685,3.273 -0.685,4.491c0,2.968 1.369,6.839 7.987,6.839c7.758,0 9.432,-5.012 10.344,-7.905c0.457,-1.598 0.837,-3.119 1.294,-4.718l0.76,-2.664l-6.161,0l-0.989,3.349c-0.304,0.914 -1.217,4.109 -1.597,4.947c-0.913,1.75 -2.206,1.979 -3.043,1.979c-2.205,0 -2.662,-1.446 -2.662,-2.36c0,-0.913 0.304,-2.055 0.761,-4.034l1.901,-7.99l12.399,0l2.51,-10.491c0.38,-1.522 0.76,-3.349 0.76,-4.947Zm-6.237,0.838c0,0.684 -0.228,1.902 -0.608,3.501l-1.369,5.86l-6.162,0l1.217,-5.404c0.685,-3.045 1.218,-5.175 2.206,-6.164c0.305,-0.382 0.913,-0.762 2.13,-0.762c1.826,0 2.586,1.218 2.586,2.969Z" style="fill:#fff;fill-rule:nonzero;"/><path d="M189.254,190.4l-6.161,0l-12.018,53.691l6.237,0l11.942,-53.691Z" style="fill:#fff;fill-rule:nonzero;"/><path d="M210.323,209.941c-0.076,-3.348 -1.901,-7.067 -8.823,-7.067c-1.597,0 -2.89,0.227 -3.499,0.379c-1.065,0.227 -3.651,0.831 -5.096,3.568c-0.685,1.217 -1.293,3.424 -2.054,6.619l-4.488,19.781c-0.076,0.381 -0.684,2.664 -0.684,4.489c0,3.348 1.901,7.066 8.823,7.066c0.533,0 4.108,0 6.39,-1.512c1.597,-0.989 2.281,-2.51 2.51,-3.119c0.456,-1.218 1.369,-4.717 1.673,-5.935l4.564,-19.78c0.304,-1.447 0.684,-2.968 0.684,-4.489Zm-6.161,0.76c0,1.065 -0.608,3.576 -0.836,4.641l-4.108,18.488c-0.456,2.131 -0.913,3.88 -1.293,4.565c-0.837,1.522 -2.282,1.598 -2.814,1.598c-0.837,0 -3.271,-0.228 -3.271,-3.043c0,-1.065 0.609,-3.576 0.837,-4.641l4.107,-18.488c0.457,-2.131 0.761,-3.424 1.141,-4.26c0.38,-0.762 0.989,-1.903 2.967,-1.903c0.836,0 3.27,0.228 3.27,3.043Z" style="fill:#fff;fill-rule:nonzero;"/><path d="M234.359,208.19c0,-3.119 -1.825,-5.316 -5.02,-5.316c-3.499,-0.076 -4.868,2.274 -5.476,3.415l0.608,-2.73l-6.085,0l-11.942,51.561l6.161,0l3.271,-14.138c0.608,2.735 2.054,3.794 4.868,3.794c2.738,0 4.26,-1.512 4.944,-2.425c1.902,-2.434 2.967,-7.456 3.043,-7.76c0.076,-0.457 0.228,-0.913 0.304,-1.37l4.412,-19.02c0.152,-0.533 0.912,-3.576 0.912,-6.011Zm-6.237,2.511c0,0.913 -0.304,2.434 -0.837,4.565l-4.183,18.032c-0.532,2.206 -0.989,4.032 -1.521,4.716c-0.761,1.141 -1.674,1.217 -2.206,1.217c-0.533,0 -2.51,-0.304 -2.51,-2.281c0,-1.446 0.608,-3.881 0.608,-3.881l4.336,-18.715c0.456,-2.055 0.913,-3.805 1.217,-4.565c0.456,-0.99 1.369,-1.675 2.51,-1.675c1.521,0 2.586,1.217 2.586,2.587Z" style="fill:#fff;fill-rule:nonzero;"/><path d="M272.391,208.494c0,-1.519 -0.304,-2.354 -0.685,-2.962c-1.369,-2.353 -4.335,-2.506 -5.02,-2.506c-4.183,0 -6.161,2.886 -6.846,4.025c-0.456,-1.671 -1.597,-4.025 -5.704,-4.025c-4.184,0 -5.781,2.658 -6.542,4.025l0.837,-3.492l-6.085,0l-9.356,40.532l6.085,0l7.074,-30.575c0.533,-2.207 1.369,-5.022 4.184,-5.099c1.749,0 2.205,0.914 2.434,1.523c0.152,0.304 0.304,0.76 0.304,1.521c0,0.685 -0.304,1.598 -0.304,1.751l-7.074,30.879l6.161,0l7.226,-31.488c0.532,-2.359 1.141,-3.12 2.358,-3.728c0.228,-0.076 0.837,-0.381 1.521,-0.381c0.989,0 2.13,0.457 2.51,1.37c0.152,0.228 0.304,0.76 0.304,1.521c0,1.218 -0.38,2.511 -0.456,2.815l-6.846,29.891l6.085,0l7.302,-31.488c0.457,-2.055 0.533,-3.12 0.533,-4.109Z" style="fill:#fff;fill-rule:nonzero;"/><path d="M296.731,209.942c0,-4.946 -3.955,-6.992 -8.367,-7.068c-0.684,0 -2.13,0 -3.955,0.606c-3.727,1.21 -4.944,4.179 -5.857,7.68c-0.228,0.914 -0.532,1.903 -0.761,2.892l-4.639,19.394c-0.533,2.361 -0.685,3.273 -0.685,4.491c0,2.968 1.369,6.839 7.987,6.839c7.758,0 9.431,-5.012 10.344,-7.905c0.457,-1.598 0.837,-3.119 1.293,-4.718l0.761,-2.664l-6.161,0l-0.989,3.349c-0.304,0.914 -1.217,4.109 -1.597,4.947c-0.913,1.75 -2.206,1.979 -3.043,1.979c-2.206,0 -2.662,-1.446 -2.662,-2.36c0,-0.913 0.304,-2.055 0.761,-4.034l1.901,-7.99l12.398,0l2.51,-10.491c0.381,-1.522 0.761,-3.349 0.761,-4.947Zm-6.237,0.838c0,0.684 -0.228,1.902 -0.609,3.501l-1.369,5.86l-6.161,0l1.217,-5.404c0.685,-3.045 1.217,-5.175 2.206,-6.164c0.304,-0.382 0.913,-0.762 2.13,-0.762c1.825,0 2.586,1.218 2.586,2.969Z" style="fill:#fff;fill-rule:nonzero;"/><path d="M321.68,208.417c0,-3.492 -2.434,-5.543 -5.781,-5.543c-3.727,-0.076 -5.324,2.279 -6.161,3.418l0.532,-2.733l-6.085,0l-9.279,40.532l6.085,0l7.378,-31.869c0.532,-2.13 1.141,-3.881 3.651,-3.881c2.51,0 3.042,1.827 3.042,2.74c0,0.456 -0.076,0.989 -0.304,1.978l-7.15,31.032l6.085,0l7.15,-30.803c0.533,-2.435 0.837,-3.652 0.837,-4.871Z" style="fill:#fff;fill-rule:nonzero;"/><path d="M339.783,203.559l-3.879,0l2.205,-8.595l-6.921,2.807l-1.445,5.788l-3.423,0l-1.293,4.935l3.422,0l-7.149,29.597c-0.229,0.912 -0.229,1.597 -0.229,1.977c0,1.903 0.837,3.574 2.663,4.329c0.76,0.228 1.521,0.379 2.357,0.379c2.054,0 3.575,-0.681 4.336,-0.983l1.369,-5.17c-0.608,0.38 -1.749,0.989 -2.586,0.989c-0.456,0 -1.597,-0.228 -1.597,-1.598c0,-0.38 0.076,-0.76 0.228,-1.445l6.846,-28.075l3.879,0l1.217,-4.935Z" style="fill:#fff;fill-rule:nonzero;"/><path d="M371.231,222.782l-4.83,0c-1.329,5.918 -2.054,7.669 -3.684,10.568c-0.663,-1.389 -2.596,-5.677 -3.502,-10.388c3.684,-3.623 4.951,-4.831 6.581,-7.065c2.235,-3.081 2.718,-5.497 2.718,-7.187c0,-3.563 -2.355,-6.575 -6.099,-6.575c-2.173,0 -3.865,1.08 -4.468,1.502c-2.11,1.51 -5.004,5.012 -5.004,11.354c0,2.174 0.422,4.59 0.844,6.704c-2.904,2.717 -5.557,5.315 -6.823,9.119c-0.723,2.054 -0.783,3.623 -0.783,4.47c0,3.139 1.085,5.373 1.748,6.397c1.447,2.111 3.557,2.955 6.039,2.955c3.376,0 5.307,-1.026 7.904,-3.015c0.664,0.603 2.355,2.292 5.072,2.713c0.604,0.12 0.785,0.12 1.751,0.181l1.087,-4.943c-1.026,-0.182 -2.355,-0.665 -4.106,-2.174c0.603,-0.907 1.147,-1.632 1.63,-2.598c2.537,-4.711 3.684,-10.629 3.925,-12.018Zm-7.729,-14.193c0,0.846 -0.362,2.053 -1.268,3.745c-1.389,2.536 -3.381,4.71 -3.924,5.315c-0.121,-1.088 -0.182,-2.236 -0.182,-3.383c0,-3.563 0.846,-5.918 1.993,-7.067c0.664,-0.603 1.208,-0.785 1.57,-0.785c1.328,0 1.811,1.027 1.811,2.175Zm-4.287,29.352c-1.208,0.845 -2.473,1.631 -4.041,1.631c-2.474,0 -3.324,-2.356 -3.505,-2.96c-0.183,-0.725 -0.183,-1.57 -0.183,-1.812c0,-3.08 1.517,-5.375 2.06,-6.16c0.482,-0.665 0.844,-1.087 1.447,-1.692c0.301,1.209 1.206,5.135 3.014,8.818c0.363,0.725 0.785,1.45 1.208,2.175Z" style="fill:#fff;fill-rule:nonzero;"/><path d="M412.839,190.4l-5.933,0l-3.651,15.737c-0.684,-1.218 -1.901,-3.263 -5.324,-3.263c-4.64,-0.076 -6.009,3.719 -6.465,5.088c-0.457,1.445 -0.837,2.892 -1.217,4.413l-5.021,21.531c-0.38,1.751 -0.684,3.196 -0.684,4.945c0,1.37 0.228,2.283 0.456,2.816c0.685,1.975 2.434,3.109 4.564,3.109c2.054,0 3.879,-1.059 5.02,-2.653c0.228,-0.38 0.533,-0.989 0.685,-1.369l-0.761,3.337l5.933,0l12.398,-53.691Zm-10.953,20.758c0,1.521 -0.76,4.184 -0.76,4.184l-4.032,17.651c-0.684,3.12 -1.141,5.021 -2.358,6.01c-0.38,0.306 -0.912,0.458 -1.445,0.458c-0.837,0 -2.434,-0.305 -2.434,-2.435c0,-1.065 0.38,-2.968 0.913,-5.402l3.879,-16.662c0.228,-1.141 0.533,-2.283 0.837,-3.424c0.152,-0.38 0.532,-3.043 2.89,-3.043c1.598,0 2.51,1.066 2.51,2.663Z" style="fill:#fff;fill-rule:nonzero;"/><path d="M432.616,209.942c0,-4.946 -3.955,-6.992 -8.367,-7.068c-0.685,0 -2.13,0 -3.955,0.606c-3.727,1.21 -4.945,4.179 -5.857,7.68c-0.228,0.914 -0.533,1.903 -0.761,2.892l-4.64,19.394c-0.532,2.361 -0.684,3.273 -0.684,4.491c0,2.968 1.369,6.839 7.986,6.839c7.759,0 9.432,-5.012 10.345,-7.905c0.456,-1.598 0.837,-3.119 1.293,-4.718l0.761,-2.664l-6.162,0l-0.988,3.349c-0.305,0.914 -1.217,4.109 -1.598,4.947c-0.912,1.75 -2.205,1.979 -3.042,1.979c-2.206,0 -2.662,-1.446 -2.662,-2.36c0,-0.913 0.304,-2.055 0.76,-4.034l1.902,-7.99l12.398,0l2.51,-10.491c0.381,-1.522 0.761,-3.349 0.761,-4.947Zm-6.237,0.838c0,0.684 -0.229,1.902 -0.609,3.501l-1.369,5.86l-6.161,0l1.217,-5.404c0.684,-3.045 1.217,-5.175 2.206,-6.164c0.304,-0.382 0.912,-0.762 2.13,-0.762c1.825,0 2.586,1.218 2.586,2.969Z" style="fill:#fff;fill-rule:nonzero;"/><path d="M455.054,209.943c0,-1.52 -0.532,-2.812 -0.76,-3.344c-0.989,-2.052 -3.119,-3.725 -7.759,-3.725c-0.912,0 -3.727,0 -5.856,1.977c-1.217,1.216 -2.054,2.66 -2.891,5.929c-0.761,2.888 -1.065,5.092 -1.065,6.234c0,2.662 1.141,4.336 2.891,6.239c0.912,0.989 3.879,3.804 4.487,5.021c0.609,1.066 0.609,2.283 0.609,2.663c0,1.903 -0.837,6.088 -2.206,7.534c-0.304,0.304 -1.141,0.989 -2.434,0.989c-0.913,0 -2.89,-0.533 -2.89,-3.044c0,-1.217 0.304,-2.359 0.532,-3.5l0.837,-3.728l-5.705,0c-0.989,3.956 -1.445,5.935 -1.445,7.913c0,7.145 6.465,7.675 8.443,7.675c0.76,0 4.259,-0.075 6.465,-2.045c2.358,-2.054 3.043,-5.554 3.271,-6.315c0.913,-3.5 1.217,-5.555 1.217,-7.228c0,-2.511 -0.533,-4.186 -2.206,-6.011c-0.532,-0.61 -1.141,-1.142 -1.749,-1.751c-1.674,-1.521 -3.195,-3.119 -3.575,-3.88c-0.229,-0.38 -0.609,-0.99 -0.609,-2.054c0,-1.064 0.761,-4.029 1.141,-5.017c0.685,-1.9 1.826,-2.203 2.814,-2.203c1.446,0 2.13,0.835 2.358,1.292c0.153,0.379 0.229,0.759 0.229,1.52c0,1.216 -0.381,2.584 -0.457,2.964l-0.38,1.824l5.629,0l0.456,-1.824c0.076,-0.152 0.608,-2.509 0.608,-4.105Z" style="fill:#fff;fill-rule:nonzero;"/><path d="M471.408,190.4l-6.085,0l-1.826,8.053l6.086,0l1.825,-8.053Zm-2.89,13.159l-6.161,0l-9.356,40.532l6.085,0l9.432,-40.532Z" style="fill:#fff;fill-rule:nonzero;"/><path d="M492.249,203.559l-6.085,0l-0.684,3.186c-0.457,-1.065 -1.75,-3.795 -5.477,-3.871c-0.913,0 -2.586,0.151 -4.031,1.892c-1.597,1.903 -2.434,4.795 -3.727,9.892l-3.195,12.782c-0.989,3.88 -1.293,5.934 -1.293,7.836c0,4.641 3.195,5.782 5.02,5.858c0.761,0 2.815,-0.304 4.412,-1.903c0.304,-0.304 0.684,-0.684 1.141,-1.445l-1.75,7.516c-0.608,2.567 -0.988,3.774 -2.358,4.53c-0.456,0.226 -0.988,0.302 -1.141,0.302c-1.369,0 -2.205,-1.058 -2.205,-2.34c0,-0.755 0.228,-1.812 0.532,-3.323l-5.857,0c-0.076,0.379 -0.608,2.341 -0.608,4.077c-0.076,5.891 5.857,6.344 7.302,6.344c1.825,0 3.27,-0.453 3.879,-0.68c4.183,-1.587 5.629,-4.908 7.378,-12.545l8.747,-38.108Zm-8.062,7.903c0,1.065 -0.457,2.739 -0.989,5.097l-2.738,11.945c-0.229,1.065 -1.065,4.261 -1.522,5.174c-0.456,1.065 -0.989,1.446 -1.445,1.674c-0.38,0.152 -0.837,0.152 -0.913,0.152c-0.76,0 -2.51,-0.38 -2.51,-2.587c0,-0.684 0.457,-2.891 0.913,-5.021l2.89,-12.554c0.533,-2.207 1.065,-4.26 1.37,-4.945c0.456,-0.989 1.293,-1.902 2.51,-1.902c1.141,0 1.977,0.837 2.282,1.902c0.076,0.381 0.152,0.989 0.152,1.065Z" style="fill:#fff;fill-rule:nonzero;"/><path d="M516.285,208.417c0,-3.492 -2.434,-5.543 -5.78,-5.543c-3.728,-0.076 -5.325,2.279 -6.162,3.418l0.533,-2.733l-6.085,0l-9.28,40.532l6.085,0l7.378,-31.869c0.533,-2.13 1.141,-3.881 3.651,-3.881c2.51,0 3.043,1.827 3.043,2.74c0,0.456 -0.076,0.989 -0.304,1.978l-7.15,31.032l6.085,0l7.15,-30.803c0.532,-2.435 0.836,-3.652 0.836,-4.871Z" style="fill:#fff;fill-rule:nonzero;"/></g></g></svg>